Doto-ThinRound.ufo
<glyph name="quotedbl" format="2">
  <advance width="600"/>
  <unicode hex="0022"/>
  <outline>
    <contour>
      <point x="149" y="665" type="line" smooth="yes"/>
      <point x="151" y="665" type="line" smooth="yes"/>
      <point x="158" y="665"/>
      <point x="165" y="658"/>
      <point x="165" y="651" type="curve" smooth="yes"/>
      <point x="165" y="649" type="line" smooth="yes"/>
      <point x="165" y="642"/>
      <point x="158" y="635"/>
      <point x="151" y="635" type="curve" smooth="yes"/>
      <point x="149" y="635" type="line" smooth="yes"/>
      <point x="142" y="635"/>
      <point x="135" y="642"/>
      <point x="135" y="649" type="curve" smooth="yes"/>
      <point x="135" y="651" type="line" smooth="yes"/>
      <point x="135" y="658"/>
      <point x="142" y="665"/>
      <point x="149" y="665" type="curve" smooth="yes"/>
    </contour>
    <contour>
      <point x="349" y="665" type="line" smooth="yes"/>
      <point x="351" y="665" type="line" smooth="yes"/>
      <point x="358" y="665"/>
      <point x="365" y="658"/>
      <point x="365" y="651" type="curve" smooth="yes"/>
      <point x="365" y="649" type="line" smooth="yes"/>
      <point x="365" y="642"/>
      <point x="358" y="635"/>
      <point x="351" y="635" type="curve" smooth="yes"/>
      <point x="349" y="635" type="line" smooth="yes"/>
      <point x="342" y="635"/>
      <point x="335" y="642"/>
      <point x="335" y="649" type="curve" smooth="yes"/>
      <point x="335" y="651" type="line" smooth="yes"/>
      <point x="335" y="658"/>
      <point x="342" y="665"/>
      <point x="349" y="665" type="curve" smooth="yes"/>
    </contour>
    <contour>
      <point x="149" y="565" type="line" smooth="yes"/>
      <point x="151" y="565" type="line" smooth="yes"/>
      <point x="158" y="565"/>
      <point x="165" y="558"/>
      <point x="165" y="551" type="curve" smooth="yes"/>
      <point x="165" y="549" type="line" smooth="yes"/>
      <point x="165" y="542"/>
      <point x="158" y="535"/>
      <point x="151" y="535" type="curve" smooth="yes"/>
      <point x="149" y="535" type="line" smooth="yes"/>
      <point x="142" y="535"/>
      <point x="135" y="542"/>
      <point x="135" y="549" type="curve" smooth="yes"/>
      <point x="135" y="551" type="line" smooth="yes"/>
      <point x="135" y="558"/>
      <point x="142" y="565"/>
      <point x="149" y="565" type="curve" smooth="yes"/>
    </contour>
    <contour>
      <point x="349" y="565" type="line" smooth="yes"/>
      <point x="351" y="565" type="line" smooth="yes"/>
      <point x="358" y="565"/>
      <point x="365" y="558"/>
      <point x="365" y="551" type="curve" smooth="yes"/>
      <point x="365" y="549" type="line" smooth="yes"/>
      <point x="365" y="542"/>
      <point x="358" y="535"/>
      <point x="351" y="535" type="curve" smooth="yes"/>
      <point x="349" y="535" type="line" smooth="yes"/>
      <point x="342" y="535"/>
      <point x="335" y="542"/>
      <point x="335" y="549" type="curve" smooth="yes"/>
      <point x="335" y="551" type="line" smooth="yes"/>
      <point x="335" y="558"/>
      <point x="342" y="565"/>
      <point x="349" y="565" type="curve" smooth="yes"/>
    </contour>
    <contour>
      <point x="149" y="465" type="line" smooth="yes"/>
      <point x="151" y="465" type="line" smooth="yes"/>
      <point x="158" y="465"/>
      <point x="165" y="458"/>
      <point x="165" y="451" type="curve" smooth="yes"/>
      <point x="165" y="449" type="line" smooth="yes"/>
      <point x="165" y="442"/>
      <point x="158" y="435"/>
      <point x="151" y="435" type="curve" smooth="yes"/>
      <point x="149" y="435" type="line" smooth="yes"/>
      <point x="142" y="435"/>
      <point x="135" y="442"/>
      <point x="135" y="449" type="curve" smooth="yes"/>
      <point x="135" y="451" type="line" smooth="yes"/>
      <point x="135" y="458"/>
      <point x="142" y="465"/>
      <point x="149" y="465" type="curve" smooth="yes"/>
    </contour>
    <contour>
      <point x="349" y="465" type="line" smooth="yes"/>
      <point x="351" y="465" type="line" smooth="yes"/>
      <point x="358" y="465"/>
      <point x="365" y="458"/>
      <point x="365" y="451" type="curve" smooth="yes"/>
      <point x="365" y="449" type="line" smooth="yes"/>
      <point x="365" y="442"/>
      <point x="358" y="435"/>
      <point x="351" y="435" type="curve" smooth="yes"/>
      <point x="349" y="435" type="line" smooth="yes"/>
      <point x="342" y="435"/>
      <point x="335" y="442"/>
      <point x="335" y="449" type="curve" smooth="yes"/>
      <point x="335" y="451" type="line" smooth="yes"/>
      <point x="335" y="458"/>
      <point x="342" y="465"/>
      <point x="349" y="465" type="curve" smooth="yes"/>
    </contour>
  </outline>
</glyph>
<glyph name="quotesingle" format="2">
  <advance width="600"/>
  <unicode hex="0027"/>
  <outline>
    <contour>
      <point x="249" y="665" type="line" smooth="yes"/>
      <point x="251" y="665" type="line" smooth="yes"/>
      <point x="258" y="665"/>
      <point x="265" y="658"/>
      <point x="265" y="651" type="curve" smooth="yes"/>
      <point x="265" y="649" type="line" smooth="yes"/>
      <point x="265" y="642"/>
      <point x="258" y="635"/>
      <point x="251" y="635" type="curve" smooth="yes"/>
      <point x="249" y="635" type="line" smooth="yes"/>
      <point x="242" y="635"/>
      <point x="235" y="642"/>
      <point x="235" y="649" type="curve" smooth="yes"/>
      <point x="235" y="651" type="line" smooth="yes"/>
      <point x="235" y="658"/>
      <point x="242" y="665"/>
      <point x="249" y="665" type="curve" smooth="yes"/>
    </contour>
    <contour>
      <point x="249" y="565" type="line" smooth="yes"/>
      <point x="251" y="565" type="line" smooth="yes"/>
      <point x="258" y="565"/>
      <point x="265" y="558"/>
      <point x="265" y="551" type="curve" smooth="yes"/>
      <point x="265" y="549" type="line" smooth="yes"/>
      <point x="265" y="542"/>
      <point x="258" y="535"/>
      <point x="251" y="535" type="curve" smooth="yes"/>
      <point x="249" y="535" type="line" smooth="yes"/>
      <point x="242" y="535"/>
      <point x="235" y="542"/>
      <point x="235" y="549" type="curve" smooth="yes"/>
      <point x="235" y="551" type="line" smooth="yes"/>
      <point x="235" y="558"/>
      <point x="242" y="565"/>
      <point x="249" y="565" type="curve" smooth="yes"/>
    </contour>
    <contour>
      <point x="249" y="465" type="line" smooth="yes"/>
      <point x="251" y="465" type="line" smooth="yes"/>
      <point x="258" y="465"/>
      <point x="265" y="458"/>
      <point x="265" y="451" type="curve" smooth="yes"/>
      <point x="265" y="449" type="line" smooth="yes"/>
      <point x="265" y="442"/>
      <point x="258" y="435"/>
      <point x="251" y="435" type="curve" smooth="yes"/>
      <point x="249" y="435" type="line" smooth="yes"/>
      <point x="242" y="435"/>
      <point x="235" y="442"/>
      <point x="235" y="449" type="curve" smooth="yes"/>
      <point x="235" y="451" type="line" smooth="yes"/>
      <point x="235" y="458"/>
      <point x="242" y="465"/>
      <point x="249" y="465" type="curve" smooth="yes"/>
    </contour>
  </outline>
</glyph>
<glyph name="equal" format="2">
  <advance width="600"/>
  <unicode hex="003D"/>
  <outline>
    <contour>
      <point x="49" y="465" type="line" smooth="yes"/>
      <point x="51" y="465" type="line" smooth="yes"/>
      <point x="58" y="465"/>
      <point x="65" y="458"/>
      <point x="65" y="451" type="curve" smooth="yes"/>
      <point x="65" y="449" type="line" smooth="yes"/>
      <point x="65" y="442"/>
      <point x="58" y="435"/>
      <point x="51" y="435" type="curve" smooth="yes"/>
      <point x="49" y="435" type="line" smooth="yes"/>
      <point x="42" y="435"/>
      <point x="35" y="442"/>
      <point x="35" y="449" type="curve" smooth="yes"/>
      <point x="35" y="451" type="line" smooth="yes"/>
      <point x="35" y="458"/>
      <point x="42" y="465"/>
      <point x="49" y="465" type="curve" smooth="yes"/>
    </contour>
    <contour>
      <point x="149" y="465" type="line" smooth="yes"/>
      <point x="151" y="465" type="line" smooth="yes"/>
      <point x="158" y="465"/>
      <point x="165" y="458"/>
      <point x="165" y="451" type="curve" smooth="yes"/>
      <point x="165" y="449" type="line" smooth="yes"/>
      <point x="165" y="442"/>
      <point x="158" y="435"/>
      <point x="151" y="435" type="curve" smooth="yes"/>
      <point x="149" y="435" type="line" smooth="yes"/>
      <point x="142" y="435"/>
      <point x="135" y="442"/>
      <point x="135" y="449" type="curve" smooth="yes"/>
      <point x="135" y="451" type="line" smooth="yes"/>
      <point x="135" y="458"/>
      <point x="142" y="465"/>
      <point x="149" y="465" type="curve" smooth="yes"/>
    </contour>
    <contour>
      <point x="249" y="465" type="line" smooth="yes"/>
      <point x="251" y="465" type="line" smooth="yes"/>
      <point x="258" y="465"/>
      <point x="265" y="458"/>
      <point x="265" y="451" type="curve" smooth="yes"/>
      <point x="265" y="449" type="line" smooth="yes"/>
      <point x="265" y="442"/>
      <point x="258" y="435"/>
      <point x="251" y="435" type="curve" smooth="yes"/>
      <point x="249" y="435" type="line" smooth="yes"/>
      <point x="242" y="435"/>
      <point x="235" y="442"/>
      <point x="235" y="449" type="curve" smooth="yes"/>
      <point x="235" y="451" type="line" smooth="yes"/>
      <point x="235" y="458"/>
      <point x="242" y="465"/>
      <point x="249" y="465" type="curve" smooth="yes"/>
    </contour>
    <contour>
      <point x="349" y="465" type="line" smooth="yes"/>
      <point x="351" y="465" type="line" smooth="yes"/>
      <point x="358" y="465"/>
      <point x="365" y="458"/>
      <point x="365" y="451" type="curve" smooth="yes"/>
      <point x="365" y="449" type="line" smooth="yes"/>
      <point x="365" y="442"/>
      <point x="358" y="435"/>
      <point x="351" y="435" type="curve" smooth="yes"/>
      <point x="349" y="435" type="line" smooth="yes"/>
      <point x="342" y="435"/>
      <point x="335" y="442"/>
      <point x="335" y="449" type="curve" smooth="yes"/>
      <point x="335" y="451" type="line" smooth="yes"/>
      <point x="335" y="458"/>
      <point x="342" y="465"/>
      <point x="349" y="465" type="curve" smooth="yes"/>
    </contour>
    <contour>
      <point x="449" y="465" type="line" smooth="yes"/>
      <point x="451" y="465" type="line" smooth="yes"/>
      <point x="458" y="465"/>
      <point x="465" y="458"/>
      <point x="465" y="451" type="curve" smooth="yes"/>
      <point x="465" y="449" type="line" smooth="yes"/>
      <point x="465" y="442"/>
      <point x="458" y="435"/>
      <point x="451" y="435" type="curve" smooth="yes"/>
      <point x="449" y="435" type="line" smooth="yes"/>
      <point x="442" y="435"/>
      <point x="435" y="442"/>
      <point x="435" y="449" type="curve" smooth="yes"/>
      <point x="435" y="451" type="line" smooth="yes"/>
      <point x="435" y="458"/>
      <point x="442" y="465"/>
      <point x="449" y="465" type="curve" smooth="yes"/>
    </contour>
    <contour>
      <point x="49" y="265" type="line" smooth="yes"/>
      <point x="51" y="265" type="line" smooth="yes"/>
      <point x="58" y="265"/>
      <point x="65" y="258"/>
      <point x="65" y="251" type="curve" smooth="yes"/>
      <point x="65" y="249" type="line" smooth="yes"/>
      <point x="65" y="242"/>
      <point x="58" y="235"/>
      <point x="51" y="235" type="curve" smooth="yes"/>
      <point x="49" y="235" type="line" smooth="yes"/>
      <point x="42" y="235"/>
      <point x="35" y="242"/>
      <point x="35" y="249" type="curve" smooth="yes"/>
      <point x="35" y="251" type="line" smooth="yes"/>
      <point x="35" y="258"/>
      <point x="42" y="265"/>
      <point x="49" y="265" type="curve" smooth="yes"/>
    </contour>
    <contour>
      <point x="149" y="265" type="line" smooth="yes"/>
      <point x="151" y="265" type="line" smooth="yes"/>
      <point x="158" y="265"/>
      <point x="165" y="258"/>
      <point x="165" y="251" type="curve" smooth="yes"/>
      <point x="165" y="249" type="line" smooth="yes"/>
      <point x="165" y="242"/>
      <point x="158" y="235"/>
      <point x="151" y="235" type="curve" smooth="yes"/>
      <point x="149" y="235" type="line" smooth="yes"/>
      <point x="142" y="235"/>
      <point x="135" y="242"/>
      <point x="135" y="249" type="curve" smooth="yes"/>
      <point x="135" y="251" type="line" smooth="yes"/>
      <point x="135" y="258"/>
      <point x="142" y="265"/>
      <point x="149" y="265" type="curve" smooth="yes"/>
    </contour>
    <contour>
      <point x="249" y="265" type="line" smooth="yes"/>
      <point x="251" y="265" type="line" smooth="yes"/>
      <point x="258" y="265"/>
      <point x="265" y="258"/>
      <point x="265" y="251" type="curve" smooth="yes"/>
      <point x="265" y="249" type="line" smooth="yes"/>
      <point x="265" y="242"/>
      <point x="258" y="235"/>
      <point x="251" y="235" type="curve" smooth="yes"/>
      <point x="249" y="235" type="line" smooth="yes"/>
      <point x="242" y="235"/>
      <point x="235" y="242"/>
      <point x="235" y="249" type="curve" smooth="yes"/>
      <point x="235" y="251" type="line" smooth="yes"/>
      <point x="235" y="258"/>
      <point x="242" y="265"/>
      <point x="249" y="265" type="curve" smooth="yes"/>
    </contour>
    <contour>
      <point x="349" y="265" type="line" smooth="yes"/>
      <point x="351" y="265" type="line" smooth="yes"/>
      <point x="358" y="265"/>
      <point x="365" y="258"/>
      <point x="365" y="251" type="curve" smooth="yes"/>
      <point x="365" y="249" type="line" smooth="yes"/>
      <point x="365" y="242"/>
      <point x="358" y="235"/>
      <point x="351" y="235" type="curve" smooth="yes"/>
      <point x="349" y="235" type="line" smooth="yes"/>
      <point x="342" y="235"/>
      <point x="335" y="242"/>
      <point x="335" y="249" type="curve" smooth="yes"/>
      <point x="335" y="251" type="line" smooth="yes"/>
      <point x="335" y="258"/>
      <point x="342" y="265"/>
      <point x="349" y="265" type="curve" smooth="yes"/>
    </contour>
    <contour>
      <point x="449" y="265" type="line" smooth="yes"/>
      <point x="451" y="265" type="line" smooth="yes"/>
      <point x="458" y="265"/>
      <point x="465" y="258"/>
      <point x="465" y="251" type="curve" smooth="yes"/>
      <point x="465" y="249" type="line" smooth="yes"/>
      <point x="465" y="242"/>
      <point x="458" y="235"/>
      <point x="451" y="235" type="curve" smooth="yes"/>
      <point x="449" y="235" type="line" smooth="yes"/>
      <point x="442" y="235"/>
      <point x="435" y="242"/>
      <point x="435" y="249" type="curve" smooth="yes"/>
      <point x="435" y="251" type="line" smooth="yes"/>
      <point x="435" y="258"/>
      <point x="442" y="265"/>
      <point x="449" y="265" type="curve" smooth="yes"/>
    </contour>
  </outline>
</glyph>
<glyph name="j" format="2">
  <advance width="600"/>
  <unicode hex="006A"/>
  <outline>
    <contour>
      <point x="449" y="665" type="line" smooth="yes"/>
      <point x="451" y="665" type="line" smooth="yes"/>
      <point x="458" y="665"/>
      <point x="465" y="658"/>
      <point x="465" y="651" type="curve" smooth="yes"/>
      <point x="465" y="649" type="line" smooth="yes"/>
      <point x="465" y="642"/>
      <point x="458" y="635"/>
      <point x="451" y="635" type="curve" smooth="yes"/>
      <point x="449" y="635" type="line" smooth="yes"/>
      <point x="442" y="635"/>
      <point x="435" y="642"/>
      <point x="435" y="649" type="curve" smooth="yes"/>
      <point x="435" y="651" type="line" smooth="yes"/>
      <point x="435" y="658"/>
      <point x="442" y="665"/>
      <point x="449" y="665" type="curve" smooth="yes"/>
    </contour>
    <contour>
      <point x="349" y="465" type="line" smooth="yes"/>
      <point x="351" y="465" type="line" smooth="yes"/>
      <point x="358" y="465"/>
      <point x="365" y="458"/>
      <point x="365" y="451" type="curve" smooth="yes"/>
      <point x="365" y="449" type="line" smooth="yes"/>
      <point x="365" y="442"/>
      <point x="358" y="435"/>
      <point x="351" y="435" type="curve" smooth="yes"/>
      <point x="349" y="435" type="line" smooth="yes"/>
      <point x="342" y="435"/>
      <point x="335" y="442"/>
      <point x="335" y="449" type="curve" smooth="yes"/>
      <point x="335" y="451" type="line" smooth="yes"/>
      <point x="335" y="458"/>
      <point x="342" y="465"/>
      <point x="349" y="465" type="curve" smooth="yes"/>
    </contour>
    <contour>
      <point x="449" y="465" type="line" smooth="yes"/>
      <point x="451" y="465" type="line" smooth="yes"/>
      <point x="458" y="465"/>
      <point x="465" y="458"/>
      <point x="465" y="451" type="curve" smooth="yes"/>
      <point x="465" y="449" type="line" smooth="yes"/>
      <point x="465" y="442"/>
      <point x="458" y="435"/>
      <point x="451" y="435" type="curve" smooth="yes"/>
      <point x="449" y="435" type="line" smooth="yes"/>
      <point x="442" y="435"/>
      <point x="435" y="442"/>
      <point x="435" y="449" type="curve" smooth="yes"/>
      <point x="435" y="451" type="line" smooth="yes"/>
      <point x="435" y="458"/>
      <point x="442" y="465"/>
      <point x="449" y="465" type="curve" smooth="yes"/>
    </contour>
    <contour>
      <point x="449" y="365" type="line" smooth="yes"/>
      <point x="451" y="365" type="line" smooth="yes"/>
      <point x="458" y="365"/>
      <point x="465" y="358"/>
      <point x="465" y="351" type="curve" smooth="yes"/>
      <point x="465" y="349" type="line" smooth="yes"/>
      <point x="465" y="342"/>
      <point x="458" y="335"/>
      <point x="451" y="335" type="curve" smooth="yes"/>
      <point x="449" y="335" type="line" smooth="yes"/>
      <point x="442" y="335"/>
      <point x="435" y="342"/>
      <point x="435" y="349" type="curve" smooth="yes"/>
      <point x="435" y="351" type="line" smooth="yes"/>
      <point x="435" y="358"/>
      <point x="442" y="365"/>
      <point x="449" y="365" type="curve" smooth="yes"/>
    </contour>
    <contour>
      <point x="449" y="265" type="line" smooth="yes"/>
      <point x="451" y="265" type="line" smooth="yes"/>
      <point x="458" y="265"/>
      <point x="465" y="258"/>
      <point x="465" y="251" type="curve" smooth="yes"/>
      <point x="465" y="249" type="line" smooth="yes"/>
      <point x="465" y="242"/>
      <point x="458" y="235"/>
      <point x="451" y="235" type="curve" smooth="yes"/>
      <point x="449" y="235" type="line" smooth="yes"/>
      <point x="442" y="235"/>
      <point x="435" y="242"/>
      <point x="435" y="249" type="curve" smooth="yes"/>
      <point x="435" y="251" type="line" smooth="yes"/>
      <point x="435" y="258"/>
      <point x="442" y="265"/>
      <point x="449" y="265" type="curve" smooth="yes"/>
    </contour>
    <contour>
      <point x="449" y="165" type="line" smooth="yes"/>
      <point x="451" y="165" type="line" smooth="yes"/>
      <point x="458" y="165"/>
      <point x="465" y="158"/>
      <point x="465" y="151" type="curve" smooth="yes"/>
      <point x="465" y="149" type="line" smooth="yes"/>
      <point x="465" y="142"/>
      <point x="458" y="135"/>
      <point x="451" y="135" type="curve" smooth="yes"/>
      <point x="449" y="135" type="line" smooth="yes"/>
      <point x="442" y="135"/>
      <point x="435" y="142"/>
      <point x="435" y="149" type="curve" smooth="yes"/>
      <point x="435" y="151" type="line" smooth="yes"/>
      <point x="435" y="158"/>
      <point x="442" y="165"/>
      <point x="449" y="165" type="curve" smooth="yes"/>
    </contour>
    <contour>
      <point x="149" y="65" type="line" smooth="yes"/>
      <point x="151" y="65" type="line" smooth="yes"/>
      <point x="158" y="65"/>
      <point x="165" y="58"/>
      <point x="165" y="51" type="curve" smooth="yes"/>
      <point x="165" y="49" type="line" smooth="yes"/>
      <point x="165" y="42"/>
      <point x="158" y="35"/>
      <point x="151" y="35" type="curve" smooth="yes"/>
      <point x="149" y="35" type="line" smooth="yes"/>
      <point x="142" y="35"/>
      <point x="135" y="42"/>
      <point x="135" y="49" type="curve" smooth="yes"/>
      <point x="135" y="51" type="line" smooth="yes"/>
      <point x="135" y="58"/>
      <point x="142" y="65"/>
      <point x="149" y="65" type="curve" smooth="yes"/>
    </contour>
    <contour>
      <point x="449" y="65" type="line" smooth="yes"/>
      <point x="451" y="65" type="line" smooth="yes"/>
      <point x="458" y="65"/>
      <point x="465" y="58"/>
      <point x="465" y="51" type="curve" smooth="yes"/>
      <point x="465" y="49" type="line" smooth="yes"/>
      <point x="465" y="42"/>
      <point x="458" y="35"/>
      <point x="451" y="35" type="curve" smooth="yes"/>
      <point x="449" y="35" type="line" smooth="yes"/>
      <point x="442" y="35"/>
      <point x="435" y="42"/>
      <point x="435" y="49" type="curve" smooth="yes"/>
      <point x="435" y="51" type="line" smooth="yes"/>
      <point x="435" y="58"/>
      <point x="442" y="65"/>
      <point x="449" y="65" type="curve" smooth="yes"/>
    </contour>
    <contour>
      <point x="149" y="-35" type="line" smooth="yes"/>
      <point x="151" y="-35" type="line" smooth="yes"/>
      <point x="158" y="-35"/>
      <point x="165" y="-42"/>
      <point x="165" y="-49" type="curve" smooth="yes"/>
      <point x="165" y="-51" type="line" smooth="yes"/>
      <point x="165" y="-58"/>
      <point x="158" y="-65"/>
      <point x="151" y="-65" type="curve" smooth="yes"/>
      <point x="149" y="-65" type="line" smooth="yes"/>
      <point x="142" y="-65"/>
      <point x="135" y="-58"/>
      <point x="135" y="-51" type="curve" smooth="yes"/>
      <point x="135" y="-49" type="line" smooth="yes"/>
      <point x="135" y="-42"/>
      <point x="142" y="-35"/>
      <point x="149" y="-35" type="curve" smooth="yes"/>
    </contour>
    <contour>
      <point x="449" y="-35" type="line" smooth="yes"/>
      <point x="451" y="-35" type="line" smooth="yes"/>
      <point x="458" y="-35"/>
      <point x="465" y="-42"/>
      <point x="465" y="-49" type="curve" smooth="yes"/>
      <point x="465" y="-51" type="line" smooth="yes"/>
      <point x="465" y="-58"/>
      <point x="458" y="-65"/>
      <point x="451" y="-65" type="curve" smooth="yes"/>
      <point x="449" y="-65" type="line" smooth="yes"/>
      <point x="442" y="-65"/>
      <point x="435" y="-58"/>
      <point x="435" y="-51" type="curve" smooth="yes"/>
      <point x="435" y="-49" type="line" smooth="yes"/>
      <point x="435" y="-42"/>
      <point x="442" y="-35"/>
      <point x="449" y="-35" type="curve" smooth="yes"/>
    </contour>
    <contour>
      <point x="249" y="-135" type="line" smooth="yes"/>
      <point x="251" y="-135" type="line" smooth="yes"/>
      <point x="258" y="-135"/>
      <point x="265" y="-142"/>
      <point x="265" y="-149" type="curve" smooth="yes"/>
      <point x="265" y="-151" type="line" smooth="yes"/>
      <point x="265" y="-158"/>
      <point x="258" y="-165"/>
      <point x="251" y="-165" type="curve" smooth="yes"/>
      <point x="249" y="-165" type="line" smooth="yes"/>
      <point x="242" y="-165"/>
      <point x="235" y="-158"/>
      <point x="235" y="-151" type="curve" smooth="yes"/>
      <point x="235" y="-149" type="line" smooth="yes"/>
      <point x="235" y="-142"/>
      <point x="242" y="-135"/>
      <point x="249" y="-135" type="curve" smooth="yes"/>
    </contour>
    <contour>
      <point x="349" y="-135" type="line" smooth="yes"/>
      <point x="351" y="-135" type="line" smooth="yes"/>
      <point x="358" y="-135"/>
      <point x="365" y="-142"/>
      <point x="365" y="-149" type="curve" smooth="yes"/>
      <point x="365" y="-151" type="line" smooth="yes"/>
      <point x="365" y="-158"/>
      <point x="358" y="-165"/>
      <point x="351" y="-165" type="curve" smooth="yes"/>
      <point x="349" y="-165" type="line" smooth="yes"/>
      <point x="342" y="-165"/>
      <point x="335" y="-158"/>
      <point x="335" y="-151" type="curve" smooth="yes"/>
      <point x="335" y="-149" type="line" smooth="yes"/>
      <point x="335" y="-142"/>
      <point x="342" y="-135"/>
      <point x="349" y="-135" type="curve" smooth="yes"/>
    </contour>
  </outline>
</glyph>
<glyph name="acute" format="2">
  <advance width="600"/>
  <unicode hex="00B4"/>
  <outline>
    <contour>
      <point x="349" y="765" type="line" smooth="yes"/>
      <point x="351" y="765" type="line" smooth="yes"/>
      <point x="358" y="765"/>
      <point x="365" y="758"/>
      <point x="365" y="751" type="curve" smooth="yes"/>
      <point x="365" y="749" type="line" smooth="yes"/>
      <point x="365" y="742"/>
      <point x="358" y="735"/>
      <point x="351" y="735" type="curve" smooth="yes"/>
      <point x="349" y="735" type="line" smooth="yes"/>
      <point x="342" y="735"/>
      <point x="335" y="742"/>
      <point x="335" y="749" type="curve" smooth="yes"/>
      <point x="335" y="751" type="line" smooth="yes"/>
      <point x="335" y="758"/>
      <point x="342" y="765"/>
      <point x="349" y="765" type="curve" smooth="yes"/>
    </contour>
    <contour>
      <point x="249" y="665" type="line" smooth="yes"/>
      <point x="251" y="665" type="line" smooth="yes"/>
      <point x="258" y="665"/>
      <point x="265" y="658"/>
      <point x="265" y="651" type="curve" smooth="yes"/>
      <point x="265" y="649" type="line" smooth="yes"/>
      <point x="265" y="642"/>
      <point x="258" y="635"/>
      <point x="251" y="635" type="curve" smooth="yes"/>
      <point x="249" y="635" type="line" smooth="yes"/>
      <point x="242" y="635"/>
      <point x="235" y="642"/>
      <point x="235" y="649" type="curve" smooth="yes"/>
      <point x="235" y="651" type="line" smooth="yes"/>
      <point x="235" y="658"/>
      <point x="242" y="665"/>
      <point x="249" y="665" type="curve" smooth="yes"/>
    </contour>
  </outline>
</glyph>
<glyph name="paragraph" format="2">
  <advance width="600"/>
  <unicode hex="00B6"/>
  <outline>
    <contour>
      <point x="149" y="665" type="line" smooth="yes"/>
      <point x="151" y="665" type="line" smooth="yes"/>
      <point x="158" y="665"/>
      <point x="165" y="658"/>
      <point x="165" y="651" type="curve" smooth="yes"/>
      <point x="165" y="649" type="line" smooth="yes"/>
      <point x="165" y="642"/>
      <point x="158" y="635"/>
      <point x="151" y="635" type="curve" smooth="yes"/>
      <point x="149" y="635" type="line" smooth="yes"/>
      <point x="142" y="635"/>
      <point x="135" y="642"/>
      <point x="135" y="649" type="curve" smooth="yes"/>
      <point x="135" y="651" type="line" smooth="yes"/>
      <point x="135" y="658"/>
      <point x="142" y="665"/>
      <point x="149" y="665" type="curve" smooth="yes"/>
    </contour>
    <contour>
      <point x="249" y="665" type="line" smooth="yes"/>
      <point x="251" y="665" type="line" smooth="yes"/>
      <point x="258" y="665"/>
      <point x="265" y="658"/>
      <point x="265" y="651" type="curve" smooth="yes"/>
      <point x="265" y="649" type="line" smooth="yes"/>
      <point x="265" y="642"/>
      <point x="258" y="635"/>
      <point x="251" y="635" type="curve" smooth="yes"/>
      <point x="249" y="635" type="line" smooth="yes"/>
      <point x="242" y="635"/>
      <point x="235" y="642"/>
      <point x="235" y="649" type="curve" smooth="yes"/>
      <point x="235" y="651" type="line" smooth="yes"/>
      <point x="235" y="658"/>
      <point x="242" y="665"/>
      <point x="249" y="665" type="curve" smooth="yes"/>
    </contour>
    <contour>
      <point x="349" y="665" type="line" smooth="yes"/>
      <point x="351" y="665" type="line" smooth="yes"/>
      <point x="358" y="665"/>
      <point x="365" y="658"/>
      <point x="365" y="651" type="curve" smooth="yes"/>
      <point x="365" y="649" type="line" smooth="yes"/>
      <point x="365" y="642"/>
      <point x="358" y="635"/>
      <point x="351" y="635" type="curve" smooth="yes"/>
      <point x="349" y="635" type="line" smooth="yes"/>
      <point x="342" y="635"/>
      <point x="335" y="642"/>
      <point x="335" y="649" type="curve" smooth="yes"/>
      <point x="335" y="651" type="line" smooth="yes"/>
      <point x="335" y="658"/>
      <point x="342" y="665"/>
      <point x="349" y="665" type="curve" smooth="yes"/>
    </contour>
    <contour>
      <point x="449" y="665" type="line" smooth="yes"/>
      <point x="451" y="665" type="line" smooth="yes"/>
      <point x="458" y="665"/>
      <point x="465" y="658"/>
      <point x="465" y="651" type="curve" smooth="yes"/>
      <point x="465" y="649" type="line" smooth="yes"/>
      <point x="465" y="642"/>
      <point x="458" y="635"/>
      <point x="451" y="635" type="curve" smooth="yes"/>
      <point x="449" y="635" type="line" smooth="yes"/>
      <point x="442" y="635"/>
      <point x="435" y="642"/>
      <point x="435" y="649" type="curve" smooth="yes"/>
      <point x="435" y="651" type="line" smooth="yes"/>
      <point x="435" y="658"/>
      <point x="442" y="665"/>
      <point x="449" y="665" type="curve" smooth="yes"/>
    </contour>
    <contour>
      <point x="49" y="565" type="line" smooth="yes"/>
      <point x="51" y="565" type="line" smooth="yes"/>
      <point x="58" y="565"/>
      <point x="65" y="558"/>
      <point x="65" y="551" type="curve" smooth="yes"/>
      <point x="65" y="549" type="line" smooth="yes"/>
      <point x="65" y="542"/>
      <point x="58" y="535"/>
      <point x="51" y="535" type="curve" smooth="yes"/>
      <point x="49" y="535" type="line" smooth="yes"/>
      <point x="42" y="535"/>
      <point x="35" y="542"/>
      <point x="35" y="549" type="curve" smooth="yes"/>
      <point x="35" y="551" type="line" smooth="yes"/>
      <point x="35" y="558"/>
      <point x="42" y="565"/>
      <point x="49" y="565" type="curve" smooth="yes"/>
    </contour>
    <contour>
      <point x="149" y="565" type="line" smooth="yes"/>
      <point x="151" y="565" type="line" smooth="yes"/>
      <point x="158" y="565"/>
      <point x="165" y="558"/>
      <point x="165" y="551" type="curve" smooth="yes"/>
      <point x="165" y="549" type="line" smooth="yes"/>
      <point x="165" y="542"/>
      <point x="158" y="535"/>
      <point x="151" y="535" type="curve" smooth="yes"/>
      <point x="149" y="535" type="line" smooth="yes"/>
      <point x="142" y="535"/>
      <point x="135" y="542"/>
      <point x="135" y="549" type="curve" smooth="yes"/>
      <point x="135" y="551" type="line" smooth="yes"/>
      <point x="135" y="558"/>
      <point x="142" y="565"/>
      <point x="149" y="565" type="curve" smooth="yes"/>
    </contour>
    <contour>
      <point x="249" y="565" type="line" smooth="yes"/>
      <point x="251" y="565" type="line" smooth="yes"/>
      <point x="258" y="565"/>
      <point x="265" y="558"/>
      <point x="265" y="551" type="curve" smooth="yes"/>
      <point x="265" y="549" type="line" smooth="yes"/>
      <point x="265" y="542"/>
      <point x="258" y="535"/>
      <point x="251" y="535" type="curve" smooth="yes"/>
      <point x="249" y="535" type="line" smooth="yes"/>
      <point x="242" y="535"/>
      <point x="235" y="542"/>
      <point x="235" y="549" type="curve" smooth="yes"/>
      <point x="235" y="551" type="line" smooth="yes"/>
      <point x="235" y="558"/>
      <point x="242" y="565"/>
      <point x="249" y="565" type="curve" smooth="yes"/>
    </contour>
    <contour>
      <point x="449" y="565" type="line" smooth="yes"/>
      <point x="451" y="565" type="line" smooth="yes"/>
      <point x="458" y="565"/>
      <point x="465" y="558"/>
      <point x="465" y="551" type="curve" smooth="yes"/>
      <point x="465" y="549" type="line" smooth="yes"/>
      <point x="465" y="542"/>
      <point x="458" y="535"/>
      <point x="451" y="535" type="curve" smooth="yes"/>
      <point x="449" y="535" type="line" smooth="yes"/>
      <point x="442" y="535"/>
      <point x="435" y="542"/>
      <point x="435" y="549" type="curve" smooth="yes"/>
      <point x="435" y="551" type="line" smooth="yes"/>
      <point x="435" y="558"/>
      <point x="442" y="565"/>
      <point x="449" y="565" type="curve" smooth="yes"/>
    </contour>
    <contour>
      <point x="49" y="465" type="line" smooth="yes"/>
      <point x="51" y="465" type="line" smooth="yes"/>
      <point x="58" y="465"/>
      <point x="65" y="458"/>
      <point x="65" y="451" type="curve" smooth="yes"/>
      <point x="65" y="449" type="line" smooth="yes"/>
      <point x="65" y="442"/>
      <point x="58" y="435"/>
      <point x="51" y="435" type="curve" smooth="yes"/>
      <point x="49" y="435" type="line" smooth="yes"/>
      <point x="42" y="435"/>
      <point x="35" y="442"/>
      <point x="35" y="449" type="curve" smooth="yes"/>
      <point x="35" y="451" type="line" smooth="yes"/>
      <point x="35" y="458"/>
      <point x="42" y="465"/>
      <point x="49" y="465" type="curve" smooth="yes"/>
    </contour>
    <contour>
      <point x="149" y="465" type="line" smooth="yes"/>
      <point x="151" y="465" type="line" smooth="yes"/>
      <point x="158" y="465"/>
      <point x="165" y="458"/>
      <point x="165" y="451" type="curve" smooth="yes"/>
      <point x="165" y="449" type="line" smooth="yes"/>
      <point x="165" y="442"/>
      <point x="158" y="435"/>
      <point x="151" y="435" type="curve" smooth="yes"/>
      <point x="149" y="435" type="line" smooth="yes"/>
      <point x="142" y="435"/>
      <point x="135" y="442"/>
      <point x="135" y="449" type="curve" smooth="yes"/>
      <point x="135" y="451" type="line" smooth="yes"/>
      <point x="135" y="458"/>
      <point x="142" y="465"/>
      <point x="149" y="465" type="curve" smooth="yes"/>
    </contour>
    <contour>
      <point x="249" y="465" type="line" smooth="yes"/>
      <point x="251" y="465" type="line" smooth="yes"/>
      <point x="258" y="465"/>
      <point x="265" y="458"/>
      <point x="265" y="451" type="curve" smooth="yes"/>
      <point x="265" y="449" type="line" smooth="yes"/>
      <point x="265" y="442"/>
      <point x="258" y="435"/>
      <point x="251" y="435" type="curve" smooth="yes"/>
      <point x="249" y="435" type="line" smooth="yes"/>
      <point x="242" y="435"/>
      <point x="235" y="442"/>
      <point x="235" y="449" type="curve" smooth="yes"/>
      <point x="235" y="451" type="line" smooth="yes"/>
      <point x="235" y="458"/>
      <point x="242" y="465"/>
      <point x="249" y="465" type="curve" smooth="yes"/>
    </contour>
    <contour>
      <point x="449" y="465" type="line" smooth="yes"/>
      <point x="451" y="465" type="line" smooth="yes"/>
      <point x="458" y="465"/>
      <point x="465" y="458"/>
      <point x="465" y="451" type="curve" smooth="yes"/>
      <point x="465" y="449" type="line" smooth="yes"/>
      <point x="465" y="442"/>
      <point x="458" y="435"/>
      <point x="451" y="435" type="curve" smooth="yes"/>
      <point x="449" y="435" type="line" smooth="yes"/>
      <point x="442" y="435"/>
      <point x="435" y="442"/>
      <point x="435" y="449" type="curve" smooth="yes"/>
      <point x="435" y="451" type="line" smooth="yes"/>
      <point x="435" y="458"/>
      <point x="442" y="465"/>
      <point x="449" y="465" type="curve" smooth="yes"/>
    </contour>
    <contour>
      <point x="149" y="365" type="line" smooth="yes"/>
      <point x="151" y="365" type="line" smooth="yes"/>
      <point x="158" y="365"/>
      <point x="165" y="358"/>
      <point x="165" y="351" type="curve" smooth="yes"/>
      <point x="165" y="349" type="line" smooth="yes"/>
      <point x="165" y="342"/>
      <point x="158" y="335"/>
      <point x="151" y="335" type="curve" smooth="yes"/>
      <point x="149" y="335" type="line" smooth="yes"/>
      <point x="142" y="335"/>
      <point x="135" y="342"/>
      <point x="135" y="349" type="curve" smooth="yes"/>
      <point x="135" y="351" type="line" smooth="yes"/>
      <point x="135" y="358"/>
      <point x="142" y="365"/>
      <point x="149" y="365" type="curve" smooth="yes"/>
    </contour>
    <contour>
      <point x="249" y="365" type="line" smooth="yes"/>
      <point x="251" y="365" type="line" smooth="yes"/>
      <point x="258" y="365"/>
      <point x="265" y="358"/>
      <point x="265" y="351" type="curve" smooth="yes"/>
      <point x="265" y="349" type="line" smooth="yes"/>
      <point x="265" y="342"/>
      <point x="258" y="335"/>
      <point x="251" y="335" type="curve" smooth="yes"/>
      <point x="249" y="335" type="line" smooth="yes"/>
      <point x="242" y="335"/>
      <point x="235" y="342"/>
      <point x="235" y="349" type="curve" smooth="yes"/>
      <point x="235" y="351" type="line" smooth="yes"/>
      <point x="235" y="358"/>
      <point x="242" y="365"/>
      <point x="249" y="365" type="curve" smooth="yes"/>
    </contour>
    <contour>
      <point x="449" y="365" type="line" smooth="yes"/>
      <point x="451" y="365" type="line" smooth="yes"/>
      <point x="458" y="365"/>
      <point x="465" y="358"/>
      <point x="465" y="351" type="curve" smooth="yes"/>
      <point x="465" y="349" type="line" smooth="yes"/>
      <point x="465" y="342"/>
      <point x="458" y="335"/>
      <point x="451" y="335" type="curve" smooth="yes"/>
      <point x="449" y="335" type="line" smooth="yes"/>
      <point x="442" y="335"/>
      <point x="435" y="342"/>
      <point x="435" y="349" type="curve" smooth="yes"/>
      <point x="435" y="351" type="line" smooth="yes"/>
      <point x="435" y="358"/>
      <point x="442" y="365"/>
      <point x="449" y="365" type="curve" smooth="yes"/>
    </contour>
    <contour>
      <point x="249" y="265" type="line" smooth="yes"/>
      <point x="251" y="265" type="line" smooth="yes"/>
      <point x="258" y="265"/>
      <point x="265" y="258"/>
      <point x="265" y="251" type="curve" smooth="yes"/>
      <point x="265" y="249" type="line" smooth="yes"/>
      <point x="265" y="242"/>
      <point x="258" y="235"/>
      <point x="251" y="235" type="curve" smooth="yes"/>
      <point x="249" y="235" type="line" smooth="yes"/>
      <point x="242" y="235"/>
      <point x="235" y="242"/>
      <point x="235" y="249" type="curve" smooth="yes"/>
      <point x="235" y="251" type="line" smooth="yes"/>
      <point x="235" y="258"/>
      <point x="242" y="265"/>
      <point x="249" y="265" type="curve" smooth="yes"/>
    </contour>
    <contour>
      <point x="449" y="265" type="line" smooth="yes"/>
      <point x="451" y="265" type="line" smooth="yes"/>
      <point x="458" y="265"/>
      <point x="465" y="258"/>
      <point x="465" y="251" type="curve" smooth="yes"/>
      <point x="465" y="249" type="line" smooth="yes"/>
      <point x="465" y="242"/>
      <point x="458" y="235"/>
      <point x="451" y="235" type="curve" smooth="yes"/>
      <point x="449" y="235" type="line" smooth="yes"/>
      <point x="442" y="235"/>
      <point x="435" y="242"/>
      <point x="435" y="249" type="curve" smooth="yes"/>
      <point x="435" y="251" type="line" smooth="yes"/>
      <point x="435" y="258"/>
      <point x="442" y="265"/>
      <point x="449" y="265" type="curve" smooth="yes"/>
    </contour>
    <contour>
      <point x="249" y="165" type="line" smooth="yes"/>
      <point x="251" y="165" type="line" smooth="yes"/>
      <point x="258" y="165"/>
      <point x="265" y="158"/>
      <point x="265" y="151" type="curve" smooth="yes"/>
      <point x="265" y="149" type="line" smooth="yes"/>
      <point x="265" y="142"/>
      <point x="258" y="135"/>
      <point x="251" y="135" type="curve" smooth="yes"/>
      <point x="249" y="135" type="line" smooth="yes"/>
      <point x="242" y="135"/>
      <point x="235" y="142"/>
      <point x="235" y="149" type="curve" smooth="yes"/>
      <point x="235" y="151" type="line" smooth="yes"/>
      <point x="235" y="158"/>
      <point x="242" y="165"/>
      <point x="249" y="165" type="curve" smooth="yes"/>
    </contour>
    <contour>
      <point x="449" y="165" type="line" smooth="yes"/>
      <point x="451" y="165" type="line" smooth="yes"/>
      <point x="458" y="165"/>
      <point x="465" y="158"/>
      <point x="465" y="151" type="curve" smooth="yes"/>
      <point x="465" y="149" type="line" smooth="yes"/>
      <point x="465" y="142"/>
      <point x="458" y="135"/>
      <point x="451" y="135" type="curve" smooth="yes"/>
      <point x="449" y="135" type="line" smooth="yes"/>
      <point x="442" y="135"/>
      <point x="435" y="142"/>
      <point x="435" y="149" type="curve" smooth="yes"/>
      <point x="435" y="151" type="line" smooth="yes"/>
      <point x="435" y="158"/>
      <point x="442" y="165"/>
      <point x="449" y="165" type="curve" smooth="yes"/>
    </contour>
    <contour>
      <point x="249" y="65" type="line" smooth="yes"/>
      <point x="251" y="65" type="line" smooth="yes"/>
      <point x="258" y="65"/>
      <point x="265" y="58"/>
      <point x="265" y="51" type="curve" smooth="yes"/>
      <point x="265" y="49" type="line" smooth="yes"/>
      <point x="265" y="42"/>
      <point x="258" y="35"/>
      <point x="251" y="35" type="curve" smooth="yes"/>
      <point x="249" y="35" type="line" smooth="yes"/>
      <point x="242" y="35"/>
      <point x="235" y="42"/>
      <point x="235" y="49" type="curve" smooth="yes"/>
      <point x="235" y="51" type="line" smooth="yes"/>
      <point x="235" y="58"/>
      <point x="242" y="65"/>
      <point x="249" y="65" type="curve" smooth="yes"/>
    </contour>
    <contour>
      <point x="449" y="65" type="line" smooth="yes"/>
      <point x="451" y="65" type="line" smooth="yes"/>
      <point x="458" y="65"/>
      <point x="465" y="58"/>
      <point x="465" y="51" type="curve" smooth="yes"/>
      <point x="465" y="49" type="line" smooth="yes"/>
      <point x="465" y="42"/>
      <point x="458" y="35"/>
      <point x="451" y="35" type="curve" smooth="yes"/>
      <point x="449" y="35" type="line" smooth="yes"/>
      <point x="442" y="35"/>
      <point x="435" y="42"/>
      <point x="435" y="49" type="curve" smooth="yes"/>
      <point x="435" y="51" type="line" smooth="yes"/>
      <point x="435" y="58"/>
      <point x="442" y="65"/>
      <point x="449" y="65" type="curve" smooth="yes"/>
    </contour>
  </outline>
</glyph>
<glyph name="periodcentered" format="2">
  <advance width="600"/>
  <unicode hex="00B7"/>
  <outline>
    <contour>
      <point x="249" y="365" type="line" smooth="yes"/>
      <point x="251" y="365" type="line" smooth="yes"/>
      <point x="258" y="365"/>
      <point x="265" y="358"/>
      <point x="265" y="351" type="curve" smooth="yes"/>
      <point x="265" y="349" type="line" smooth="yes"/>
      <point x="265" y="342"/>
      <point x="258" y="335"/>
      <point x="251" y="335" type="curve" smooth="yes"/>
      <point x="249" y="335" type="line" smooth="yes"/>
      <point x="242" y="335"/>
      <point x="235" y="342"/>
      <point x="235" y="349" type="curve" smooth="yes"/>
      <point x="235" y="351" type="line" smooth="yes"/>
      <point x="235" y="358"/>
      <point x="242" y="365"/>
      <point x="249" y="365" type="curve" smooth="yes"/>
    </contour>
  </outline>
</glyph>
<glyph name="ydieresis" format="2">
  <advance width="600"/>
  <unicode hex="00FF"/>
  <outline>
    <contour>
      <point x="149" y="665" type="line" smooth="yes"/>
      <point x="151" y="665" type="line" smooth="yes"/>
      <point x="158" y="665"/>
      <point x="165" y="658"/>
      <point x="165" y="651" type="curve" smooth="yes"/>
      <point x="165" y="649" type="line" smooth="yes"/>
      <point x="165" y="642"/>
      <point x="158" y="635"/>
      <point x="151" y="635" type="curve" smooth="yes"/>
      <point x="149" y="635" type="line" smooth="yes"/>
      <point x="142" y="635"/>
      <point x="135" y="642"/>
      <point x="135" y="649" type="curve" smooth="yes"/>
      <point x="135" y="651" type="line" smooth="yes"/>
      <point x="135" y="658"/>
      <point x="142" y="665"/>
      <point x="149" y="665" type="curve" smooth="yes"/>
    </contour>
    <contour>
      <point x="349" y="665" type="line" smooth="yes"/>
      <point x="351" y="665" type="line" smooth="yes"/>
      <point x="358" y="665"/>
      <point x="365" y="658"/>
      <point x="365" y="651" type="curve" smooth="yes"/>
      <point x="365" y="649" type="line" smooth="yes"/>
      <point x="365" y="642"/>
      <point x="358" y="635"/>
      <point x="351" y="635" type="curve" smooth="yes"/>
      <point x="349" y="635" type="line" smooth="yes"/>
      <point x="342" y="635"/>
      <point x="335" y="642"/>
      <point x="335" y="649" type="curve" smooth="yes"/>
      <point x="335" y="651" type="line" smooth="yes"/>
      <point x="335" y="658"/>
      <point x="342" y="665"/>
      <point x="349" y="665" type="curve" smooth="yes"/>
    </contour>
    <contour>
      <point x="49" y="465" type="line" smooth="yes"/>
      <point x="51" y="465" type="line" smooth="yes"/>
      <point x="58" y="465"/>
      <point x="65" y="458"/>
      <point x="65" y="451" type="curve" smooth="yes"/>
      <point x="65" y="449" type="line" smooth="yes"/>
      <point x="65" y="442"/>
      <point x="58" y="435"/>
      <point x="51" y="435" type="curve" smooth="yes"/>
      <point x="49" y="435" type="line" smooth="yes"/>
      <point x="42" y="435"/>
      <point x="35" y="442"/>
      <point x="35" y="449" type="curve" smooth="yes"/>
      <point x="35" y="451" type="line" smooth="yes"/>
      <point x="35" y="458"/>
      <point x="42" y="465"/>
      <point x="49" y="465" type="curve" smooth="yes"/>
    </contour>
    <contour>
      <point x="449" y="465" type="line" smooth="yes"/>
      <point x="451" y="465" type="line" smooth="yes"/>
      <point x="458" y="465"/>
      <point x="465" y="458"/>
      <point x="465" y="451" type="curve" smooth="yes"/>
      <point x="465" y="449" type="line" smooth="yes"/>
      <point x="465" y="442"/>
      <point x="458" y="435"/>
      <point x="451" y="435" type="curve" smooth="yes"/>
      <point x="449" y="435" type="line" smooth="yes"/>
      <point x="442" y="435"/>
      <point x="435" y="442"/>
      <point x="435" y="449" type="curve" smooth="yes"/>
      <point x="435" y="451" type="line" smooth="yes"/>
      <point x="435" y="458"/>
      <point x="442" y="465"/>
      <point x="449" y="465" type="curve" smooth="yes"/>
    </contour>
    <contour>
      <point x="49" y="365" type="line" smooth="yes"/>
      <point x="51" y="365" type="line" smooth="yes"/>
      <point x="58" y="365"/>
      <point x="65" y="358"/>
      <point x="65" y="351" type="curve" smooth="yes"/>
      <point x="65" y="349" type="line" smooth="yes"/>
      <point x="65" y="342"/>
      <point x="58" y="335"/>
      <point x="51" y="335" type="curve" smooth="yes"/>
      <point x="49" y="335" type="line" smooth="yes"/>
      <point x="42" y="335"/>
      <point x="35" y="342"/>
      <point x="35" y="349" type="curve" smooth="yes"/>
      <point x="35" y="351" type="line" smooth="yes"/>
      <point x="35" y="358"/>
      <point x="42" y="365"/>
      <point x="49" y="365" type="curve" smooth="yes"/>
    </contour>
    <contour>
      <point x="449" y="365" type="line" smooth="yes"/>
      <point x="451" y="365" type="line" smooth="yes"/>
      <point x="458" y="365"/>
      <point x="465" y="358"/>
      <point x="465" y="351" type="curve" smooth="yes"/>
      <point x="465" y="349" type="line" smooth="yes"/>
      <point x="465" y="342"/>
      <point x="458" y="335"/>
      <point x="451" y="335" type="curve" smooth="yes"/>
      <point x="449" y="335" type="line" smooth="yes"/>
      <point x="442" y="335"/>
      <point x="435" y="342"/>
      <point x="435" y="349" type="curve" smooth="yes"/>
      <point x="435" y="351" type="line" smooth="yes"/>
      <point x="435" y="358"/>
      <point x="442" y="365"/>
      <point x="449" y="365" type="curve" smooth="yes"/>
    </contour>
    <contour>
      <point x="49" y="265" type="line" smooth="yes"/>
      <point x="51" y="265" type="line" smooth="yes"/>
      <point x="58" y="265"/>
      <point x="65" y="258"/>
      <point x="65" y="251" type="curve" smooth="yes"/>
      <point x="65" y="249" type="line" smooth="yes"/>
      <point x="65" y="242"/>
      <point x="58" y="235"/>
      <point x="51" y="235" type="curve" smooth="yes"/>
      <point x="49" y="235" type="line" smooth="yes"/>
      <point x="42" y="235"/>
      <point x="35" y="242"/>
      <point x="35" y="249" type="curve" smooth="yes"/>
      <point x="35" y="251" type="line" smooth="yes"/>
      <point x="35" y="258"/>
      <point x="42" y="265"/>
      <point x="49" y="265" type="curve" smooth="yes"/>
    </contour>
    <contour>
      <point x="349" y="265" type="line" smooth="yes"/>
      <point x="351" y="265" type="line" smooth="yes"/>
      <point x="358" y="265"/>
      <point x="365" y="258"/>
      <point x="365" y="251" type="curve" smooth="yes"/>
      <point x="365" y="249" type="line" smooth="yes"/>
      <point x="365" y="242"/>
      <point x="358" y="235"/>
      <point x="351" y="235" type="curve" smooth="yes"/>
      <point x="349" y="235" type="line" smooth="yes"/>
      <point x="342" y="235"/>
      <point x="335" y="242"/>
      <point x="335" y="249" type="curve" smooth="yes"/>
      <point x="335" y="251" type="line" smooth="yes"/>
      <point x="335" y="258"/>
      <point x="342" y="265"/>
      <point x="349" y="265" type="curve" smooth="yes"/>
    </contour>
    <contour>
      <point x="449" y="265" type="line" smooth="yes"/>
      <point x="451" y="265" type="line" smooth="yes"/>
      <point x="458" y="265"/>
      <point x="465" y="258"/>
      <point x="465" y="251" type="curve" smooth="yes"/>
      <point x="465" y="249" type="line" smooth="yes"/>
      <point x="465" y="242"/>
      <point x="458" y="235"/>
      <point x="451" y="235" type="curve" smooth="yes"/>
      <point x="449" y="235" type="line" smooth="yes"/>
      <point x="442" y="235"/>
      <point x="435" y="242"/>
      <point x="435" y="249" type="curve" smooth="yes"/>
      <point x="435" y="251" type="line" smooth="yes"/>
      <point x="435" y="258"/>
      <point x="442" y="265"/>
      <point x="449" y="265" type="curve" smooth="yes"/>
    </contour>
    <contour>
      <point x="149" y="165" type="line" smooth="yes"/>
      <point x="151" y="165" type="line" smooth="yes"/>
      <point x="158" y="165"/>
      <point x="165" y="158"/>
      <point x="165" y="151" type="curve" smooth="yes"/>
      <point x="165" y="149" type="line" smooth="yes"/>
      <point x="165" y="142"/>
      <point x="158" y="135"/>
      <point x="151" y="135" type="curve" smooth="yes"/>
      <point x="149" y="135" type="line" smooth="yes"/>
      <point x="142" y="135"/>
      <point x="135" y="142"/>
      <point x="135" y="149" type="curve" smooth="yes"/>
      <point x="135" y="151" type="line" smooth="yes"/>
      <point x="135" y="158"/>
      <point x="142" y="165"/>
      <point x="149" y="165" type="curve" smooth="yes"/>
    </contour>
    <contour>
      <point x="249" y="165" type="line" smooth="yes"/>
      <point x="251" y="165" type="line" smooth="yes"/>
      <point x="258" y="165"/>
      <point x="265" y="158"/>
      <point x="265" y="151" type="curve" smooth="yes"/>
      <point x="265" y="149" type="line" smooth="yes"/>
      <point x="265" y="142"/>
      <point x="258" y="135"/>
      <point x="251" y="135" type="curve" smooth="yes"/>
      <point x="249" y="135" type="line" smooth="yes"/>
      <point x="242" y="135"/>
      <point x="235" y="142"/>
      <point x="235" y="149" type="curve" smooth="yes"/>
      <point x="235" y="151" type="line" smooth="yes"/>
      <point x="235" y="158"/>
      <point x="242" y="165"/>
      <point x="249" y="165" type="curve" smooth="yes"/>
    </contour>
    <contour>
      <point x="449" y="165" type="line" smooth="yes"/>
      <point x="451" y="165" type="line" smooth="yes"/>
      <point x="458" y="165"/>
      <point x="465" y="158"/>
      <point x="465" y="151" type="curve" smooth="yes"/>
      <point x="465" y="149" type="line" smooth="yes"/>
      <point x="465" y="142"/>
      <point x="458" y="135"/>
      <point x="451" y="135" type="curve" smooth="yes"/>
      <point x="449" y="135" type="line" smooth="yes"/>
      <point x="442" y="135"/>
      <point x="435" y="142"/>
      <point x="435" y="149" type="curve" smooth="yes"/>
      <point x="435" y="151" type="line" smooth="yes"/>
      <point x="435" y="158"/>
      <point x="442" y="165"/>
      <point x="449" y="165" type="curve" smooth="yes"/>
    </contour>
    <contour>
      <point x="449" y="65" type="line" smooth="yes"/>
      <point x="451" y="65" type="line" smooth="yes"/>
      <point x="458" y="65"/>
      <point x="465" y="58"/>
      <point x="465" y="51" type="curve" smooth="yes"/>
      <point x="465" y="49" type="line" smooth="yes"/>
      <point x="465" y="42"/>
      <point x="458" y="35"/>
      <point x="451" y="35" type="curve" smooth="yes"/>
      <point x="449" y="35" type="line" smooth="yes"/>
      <point x="442" y="35"/>
      <point x="435" y="42"/>
      <point x="435" y="49" type="curve" smooth="yes"/>
      <point x="435" y="51" type="line" smooth="yes"/>
      <point x="435" y="58"/>
      <point x="442" y="65"/>
      <point x="449" y="65" type="curve" smooth="yes"/>
    </contour>
    <contour>
      <point x="49" y="-35" type="line" smooth="yes"/>
      <point x="51" y="-35" type="line" smooth="yes"/>
      <point x="58" y="-35"/>
      <point x="65" y="-42"/>
      <point x="65" y="-49" type="curve" smooth="yes"/>
      <point x="65" y="-51" type="line" smooth="yes"/>
      <point x="65" y="-58"/>
      <point x="58" y="-65"/>
      <point x="51" y="-65" type="curve" smooth="yes"/>
      <point x="49" y="-65" type="line" smooth="yes"/>
      <point x="42" y="-65"/>
      <point x="35" y="-58"/>
      <point x="35" y="-51" type="curve" smooth="yes"/>
      <point x="35" y="-49" type="line" smooth="yes"/>
      <point x="35" y="-42"/>
      <point x="42" y="-35"/>
      <point x="49" y="-35" type="curve" smooth="yes"/>
    </contour>
    <contour>
      <point x="449" y="-35" type="line" smooth="yes"/>
      <point x="451" y="-35" type="line" smooth="yes"/>
      <point x="458" y="-35"/>
      <point x="465" y="-42"/>
      <point x="465" y="-49" type="curve" smooth="yes"/>
      <point x="465" y="-51" type="line" smooth="yes"/>
      <point x="465" y="-58"/>
      <point x="458" y="-65"/>
      <point x="451" y="-65" type="curve" smooth="yes"/>
      <point x="449" y="-65" type="line" smooth="yes"/>
      <point x="442" y="-65"/>
      <point x="435" y="-58"/>
      <point x="435" y="-51" type="curve" smooth="yes"/>
      <point x="435" y="-49" type="line" smooth="yes"/>
      <point x="435" y="-42"/>
      <point x="442" y="-35"/>
      <point x="449" y="-35" type="curve" smooth="yes"/>
    </contour>
    <contour>
      <point x="149" y="-135" type="line" smooth="yes"/>
      <point x="151" y="-135" type="line" smooth="yes"/>
      <point x="158" y="-135"/>
      <point x="165" y="-142"/>
      <point x="165" y="-149" type="curve" smooth="yes"/>
      <point x="165" y="-151" type="line" smooth="yes"/>
      <point x="165" y="-158"/>
      <point x="158" y="-165"/>
      <point x="151" y="-165" type="curve" smooth="yes"/>
      <point x="149" y="-165" type="line" smooth="yes"/>
      <point x="142" y="-165"/>
      <point x="135" y="-158"/>
      <point x="135" y="-151" type="curve" smooth="yes"/>
      <point x="135" y="-149" type="line" smooth="yes"/>
      <point x="135" y="-142"/>
      <point x="142" y="-135"/>
      <point x="149" y="-135" type="curve" smooth="yes"/>
    </contour>
    <contour>
      <point x="249" y="-135" type="line" smooth="yes"/>
      <point x="251" y="-135" type="line" smooth="yes"/>
      <point x="258" y="-135"/>
      <point x="265" y="-142"/>
      <point x="265" y="-149" type="curve" smooth="yes"/>
      <point x="265" y="-151" type="line" smooth="yes"/>
      <point x="265" y="-158"/>
      <point x="258" y="-165"/>
      <point x="251" y="-165" type="curve" smooth="yes"/>
      <point x="249" y="-165" type="line" smooth="yes"/>
      <point x="242" y="-165"/>
      <point x="235" y="-158"/>
      <point x="235" y="-151" type="curve" smooth="yes"/>
      <point x="235" y="-149" type="line" smooth="yes"/>
      <point x="235" y="-142"/>
      <point x="242" y="-135"/>
      <point x="249" y="-135" type="curve" smooth="yes"/>
    </contour>
    <contour>
      <point x="349" y="-135" type="line" smooth="yes"/>
      <point x="351" y="-135" type="line" smooth="yes"/>
      <point x="358" y="-135"/>
      <point x="365" y="-142"/>
      <point x="365" y="-149" type="curve" smooth="yes"/>
      <point x="365" y="-151" type="line" smooth="yes"/>
      <point x="365" y="-158"/>
      <point x="358" y="-165"/>
      <point x="351" y="-165" type="curve" smooth="yes"/>
      <point x="349" y="-165" type="line" smooth="yes"/>
      <point x="342" y="-165"/>
      <point x="335" y="-158"/>
      <point x="335" y="-151" type="curve" smooth="yes"/>
      <point x="335" y="-149" type="line" smooth="yes"/>
      <point x="335" y="-142"/>
      <point x="342" y="-135"/>
      <point x="349" y="-135" type="curve" smooth="yes"/>
    </contour>
  </outline>
</glyph>
<glyph name="dcroat" format="2">
  <advance width="600"/>
  <unicode hex="0111"/>
  <outline>
    <contour>
      <point x="349" y="665" type="line" smooth="yes"/>
      <point x="351" y="665" type="line" smooth="yes"/>
      <point x="358" y="665"/>
      <point x="365" y="658"/>
      <point x="365" y="651" type="curve" smooth="yes"/>
      <point x="365" y="649" type="line" smooth="yes"/>
      <point x="365" y="642"/>
      <point x="358" y="635"/>
      <point x="351" y="635" type="curve" smooth="yes"/>
      <point x="349" y="635" type="line" smooth="yes"/>
      <point x="342" y="635"/>
      <point x="335" y="642"/>
      <point x="335" y="649" type="curve" smooth="yes"/>
      <point x="335" y="651" type="line" smooth="yes"/>
      <point x="335" y="658"/>
      <point x="342" y="665"/>
      <point x="349" y="665" type="curve" smooth="yes"/>
    </contour>
    <contour>
      <point x="249" y="565" type="line" smooth="yes"/>
      <point x="251" y="565" type="line" smooth="yes"/>
      <point x="258" y="565"/>
      <point x="265" y="558"/>
      <point x="265" y="551" type="curve" smooth="yes"/>
      <point x="265" y="549" type="line" smooth="yes"/>
      <point x="265" y="542"/>
      <point x="258" y="535"/>
      <point x="251" y="535" type="curve" smooth="yes"/>
      <point x="249" y="535" type="line" smooth="yes"/>
      <point x="242" y="535"/>
      <point x="235" y="542"/>
      <point x="235" y="549" type="curve" smooth="yes"/>
      <point x="235" y="551" type="line" smooth="yes"/>
      <point x="235" y="558"/>
      <point x="242" y="565"/>
      <point x="249" y="565" type="curve" smooth="yes"/>
    </contour>
    <contour>
      <point x="349" y="565" type="line" smooth="yes"/>
      <point x="351" y="565" type="line" smooth="yes"/>
      <point x="358" y="565"/>
      <point x="365" y="558"/>
      <point x="365" y="551" type="curve" smooth="yes"/>
      <point x="365" y="549" type="line" smooth="yes"/>
      <point x="365" y="542"/>
      <point x="358" y="535"/>
      <point x="351" y="535" type="curve" smooth="yes"/>
      <point x="349" y="535" type="line" smooth="yes"/>
      <point x="342" y="535"/>
      <point x="335" y="542"/>
      <point x="335" y="549" type="curve" smooth="yes"/>
      <point x="335" y="551" type="line" smooth="yes"/>
      <point x="335" y="558"/>
      <point x="342" y="565"/>
      <point x="349" y="565" type="curve" smooth="yes"/>
    </contour>
    <contour>
      <point x="449" y="565" type="line" smooth="yes"/>
      <point x="451" y="565" type="line" smooth="yes"/>
      <point x="458" y="565"/>
      <point x="465" y="558"/>
      <point x="465" y="551" type="curve" smooth="yes"/>
      <point x="465" y="549" type="line" smooth="yes"/>
      <point x="465" y="542"/>
      <point x="458" y="535"/>
      <point x="451" y="535" type="curve" smooth="yes"/>
      <point x="449" y="535" type="line" smooth="yes"/>
      <point x="442" y="535"/>
      <point x="435" y="542"/>
      <point x="435" y="549" type="curve" smooth="yes"/>
      <point x="435" y="551" type="line" smooth="yes"/>
      <point x="435" y="558"/>
      <point x="442" y="565"/>
      <point x="449" y="565" type="curve" smooth="yes"/>
    </contour>
    <contour>
      <point x="349" y="465" type="line" smooth="yes"/>
      <point x="351" y="465" type="line" smooth="yes"/>
      <point x="358" y="465"/>
      <point x="365" y="458"/>
      <point x="365" y="451" type="curve" smooth="yes"/>
      <point x="365" y="449" type="line" smooth="yes"/>
      <point x="365" y="442"/>
      <point x="358" y="435"/>
      <point x="351" y="435" type="curve" smooth="yes"/>
      <point x="349" y="435" type="line" smooth="yes"/>
      <point x="342" y="435"/>
      <point x="335" y="442"/>
      <point x="335" y="449" type="curve" smooth="yes"/>
      <point x="335" y="451" type="line" smooth="yes"/>
      <point x="335" y="458"/>
      <point x="342" y="465"/>
      <point x="349" y="465" type="curve" smooth="yes"/>
    </contour>
    <contour>
      <point x="149" y="365" type="line" smooth="yes"/>
      <point x="151" y="365" type="line" smooth="yes"/>
      <point x="158" y="365"/>
      <point x="165" y="358"/>
      <point x="165" y="351" type="curve" smooth="yes"/>
      <point x="165" y="349" type="line" smooth="yes"/>
      <point x="165" y="342"/>
      <point x="158" y="335"/>
      <point x="151" y="335" type="curve" smooth="yes"/>
      <point x="149" y="335" type="line" smooth="yes"/>
      <point x="142" y="335"/>
      <point x="135" y="342"/>
      <point x="135" y="349" type="curve" smooth="yes"/>
      <point x="135" y="351" type="line" smooth="yes"/>
      <point x="135" y="358"/>
      <point x="142" y="365"/>
      <point x="149" y="365" type="curve" smooth="yes"/>
    </contour>
    <contour>
      <point x="249" y="365" type="line" smooth="yes"/>
      <point x="251" y="365" type="line" smooth="yes"/>
      <point x="258" y="365"/>
      <point x="265" y="358"/>
      <point x="265" y="351" type="curve" smooth="yes"/>
      <point x="265" y="349" type="line" smooth="yes"/>
      <point x="265" y="342"/>
      <point x="258" y="335"/>
      <point x="251" y="335" type="curve" smooth="yes"/>
      <point x="249" y="335" type="line" smooth="yes"/>
      <point x="242" y="335"/>
      <point x="235" y="342"/>
      <point x="235" y="349" type="curve" smooth="yes"/>
      <point x="235" y="351" type="line" smooth="yes"/>
      <point x="235" y="358"/>
      <point x="242" y="365"/>
      <point x="249" y="365" type="curve" smooth="yes"/>
    </contour>
    <contour>
      <point x="349" y="365" type="line" smooth="yes"/>
      <point x="351" y="365" type="line" smooth="yes"/>
      <point x="358" y="365"/>
      <point x="365" y="358"/>
      <point x="365" y="351" type="curve" smooth="yes"/>
      <point x="365" y="349" type="line" smooth="yes"/>
      <point x="365" y="342"/>
      <point x="358" y="335"/>
      <point x="351" y="335" type="curve" smooth="yes"/>
      <point x="349" y="335" type="line" smooth="yes"/>
      <point x="342" y="335"/>
      <point x="335" y="342"/>
      <point x="335" y="349" type="curve" smooth="yes"/>
      <point x="335" y="351" type="line" smooth="yes"/>
      <point x="335" y="358"/>
      <point x="342" y="365"/>
      <point x="349" y="365" type="curve" smooth="yes"/>
    </contour>
    <contour>
      <point x="49" y="265" type="line" smooth="yes"/>
      <point x="51" y="265" type="line" smooth="yes"/>
      <point x="58" y="265"/>
      <point x="65" y="258"/>
      <point x="65" y="251" type="curve" smooth="yes"/>
      <point x="65" y="249" type="line" smooth="yes"/>
      <point x="65" y="242"/>
      <point x="58" y="235"/>
      <point x="51" y="235" type="curve" smooth="yes"/>
      <point x="49" y="235" type="line" smooth="yes"/>
      <point x="42" y="235"/>
      <point x="35" y="242"/>
      <point x="35" y="249" type="curve" smooth="yes"/>
      <point x="35" y="251" type="line" smooth="yes"/>
      <point x="35" y="258"/>
      <point x="42" y="265"/>
      <point x="49" y="265" type="curve" smooth="yes"/>
    </contour>
    <contour>
      <point x="349" y="265" type="line" smooth="yes"/>
      <point x="351" y="265" type="line" smooth="yes"/>
      <point x="358" y="265"/>
      <point x="365" y="258"/>
      <point x="365" y="251" type="curve" smooth="yes"/>
      <point x="365" y="249" type="line" smooth="yes"/>
      <point x="365" y="242"/>
      <point x="358" y="235"/>
      <point x="351" y="235" type="curve" smooth="yes"/>
      <point x="349" y="235" type="line" smooth="yes"/>
      <point x="342" y="235"/>
      <point x="335" y="242"/>
      <point x="335" y="249" type="curve" smooth="yes"/>
      <point x="335" y="251" type="line" smooth="yes"/>
      <point x="335" y="258"/>
      <point x="342" y="265"/>
      <point x="349" y="265" type="curve" smooth="yes"/>
    </contour>
    <contour>
      <point x="49" y="165" type="line" smooth="yes"/>
      <point x="51" y="165" type="line" smooth="yes"/>
      <point x="58" y="165"/>
      <point x="65" y="158"/>
      <point x="65" y="151" type="curve" smooth="yes"/>
      <point x="65" y="149" type="line" smooth="yes"/>
      <point x="65" y="142"/>
      <point x="58" y="135"/>
      <point x="51" y="135" type="curve" smooth="yes"/>
      <point x="49" y="135" type="line" smooth="yes"/>
      <point x="42" y="135"/>
      <point x="35" y="142"/>
      <point x="35" y="149" type="curve" smooth="yes"/>
      <point x="35" y="151" type="line" smooth="yes"/>
      <point x="35" y="158"/>
      <point x="42" y="165"/>
      <point x="49" y="165" type="curve" smooth="yes"/>
    </contour>
    <contour>
      <point x="349" y="165" type="line" smooth="yes"/>
      <point x="351" y="165" type="line" smooth="yes"/>
      <point x="358" y="165"/>
      <point x="365" y="158"/>
      <point x="365" y="151" type="curve" smooth="yes"/>
      <point x="365" y="149" type="line" smooth="yes"/>
      <point x="365" y="142"/>
      <point x="358" y="135"/>
      <point x="351" y="135" type="curve" smooth="yes"/>
      <point x="349" y="135" type="line" smooth="yes"/>
      <point x="342" y="135"/>
      <point x="335" y="142"/>
      <point x="335" y="149" type="curve" smooth="yes"/>
      <point x="335" y="151" type="line" smooth="yes"/>
      <point x="335" y="158"/>
      <point x="342" y="165"/>
      <point x="349" y="165" type="curve" smooth="yes"/>
    </contour>
    <contour>
      <point x="149" y="65" type="line" smooth="yes"/>
      <point x="151" y="65" type="line" smooth="yes"/>
      <point x="158" y="65"/>
      <point x="165" y="58"/>
      <point x="165" y="51" type="curve" smooth="yes"/>
      <point x="165" y="49" type="line" smooth="yes"/>
      <point x="165" y="42"/>
      <point x="158" y="35"/>
      <point x="151" y="35" type="curve" smooth="yes"/>
      <point x="149" y="35" type="line" smooth="yes"/>
      <point x="142" y="35"/>
      <point x="135" y="42"/>
      <point x="135" y="49" type="curve" smooth="yes"/>
      <point x="135" y="51" type="line" smooth="yes"/>
      <point x="135" y="58"/>
      <point x="142" y="65"/>
      <point x="149" y="65" type="curve" smooth="yes"/>
    </contour>
    <contour>
      <point x="249" y="65" type="line" smooth="yes"/>
      <point x="251" y="65" type="line" smooth="yes"/>
      <point x="258" y="65"/>
      <point x="265" y="58"/>
      <point x="265" y="51" type="curve" smooth="yes"/>
      <point x="265" y="49" type="line" smooth="yes"/>
      <point x="265" y="42"/>
      <point x="258" y="35"/>
      <point x="251" y="35" type="curve" smooth="yes"/>
      <point x="249" y="35" type="line" smooth="yes"/>
      <point x="242" y="35"/>
      <point x="235" y="42"/>
      <point x="235" y="49" type="curve" smooth="yes"/>
      <point x="235" y="51" type="line" smooth="yes"/>
      <point x="235" y="58"/>
      <point x="242" y="65"/>
      <point x="249" y="65" type="curve" smooth="yes"/>
    </contour>
    <contour>
      <point x="349" y="65" type="line" smooth="yes"/>
      <point x="351" y="65" type="line" smooth="yes"/>
      <point x="358" y="65"/>
      <point x="365" y="58"/>
      <point x="365" y="51" type="curve" smooth="yes"/>
      <point x="365" y="49" type="line" smooth="yes"/>
      <point x="365" y="42"/>
      <point x="358" y="35"/>
      <point x="351" y="35" type="curve" smooth="yes"/>
      <point x="349" y="35" type="line" smooth="yes"/>
      <point x="342" y="35"/>
      <point x="335" y="42"/>
      <point x="335" y="49" type="curve" smooth="yes"/>
      <point x="335" y="51" type="line" smooth="yes"/>
      <point x="335" y="58"/>
      <point x="342" y="65"/>
      <point x="349" y="65" type="curve" smooth="yes"/>
    </contour>
  </outline>
</glyph>
<glyph name="Lslash" format="2">
  <advance width="600"/>
  <unicode hex="0141"/>
  <outline>
    <contour>
      <point x="149" y="665" type="line" smooth="yes"/>
      <point x="151" y="665" type="line" smooth="yes"/>
      <point x="158" y="665"/>
      <point x="165" y="658"/>
      <point x="165" y="651" type="curve" smooth="yes"/>
      <point x="165" y="649" type="line" smooth="yes"/>
      <point x="165" y="642"/>
      <point x="158" y="635"/>
      <point x="151" y="635" type="curve" smooth="yes"/>
      <point x="149" y="635" type="line" smooth="yes"/>
      <point x="142" y="635"/>
      <point x="135" y="642"/>
      <point x="135" y="649" type="curve" smooth="yes"/>
      <point x="135" y="651" type="line" smooth="yes"/>
      <point x="135" y="658"/>
      <point x="142" y="665"/>
      <point x="149" y="665" type="curve" smooth="yes"/>
    </contour>
    <contour>
      <point x="149" y="565" type="line" smooth="yes"/>
      <point x="151" y="565" type="line" smooth="yes"/>
      <point x="158" y="565"/>
      <point x="165" y="558"/>
      <point x="165" y="551" type="curve" smooth="yes"/>
      <point x="165" y="549" type="line" smooth="yes"/>
      <point x="165" y="542"/>
      <point x="158" y="535"/>
      <point x="151" y="535" type="curve" smooth="yes"/>
      <point x="149" y="535" type="line" smooth="yes"/>
      <point x="142" y="535"/>
      <point x="135" y="542"/>
      <point x="135" y="549" type="curve" smooth="yes"/>
      <point x="135" y="551" type="line" smooth="yes"/>
      <point x="135" y="558"/>
      <point x="142" y="565"/>
      <point x="149" y="565" type="curve" smooth="yes"/>
    </contour>
    <contour>
      <point x="149" y="465" type="line" smooth="yes"/>
      <point x="151" y="465" type="line" smooth="yes"/>
      <point x="158" y="465"/>
      <point x="165" y="458"/>
      <point x="165" y="451" type="curve" smooth="yes"/>
      <point x="165" y="449" type="line" smooth="yes"/>
      <point x="165" y="442"/>
      <point x="158" y="435"/>
      <point x="151" y="435" type="curve" smooth="yes"/>
      <point x="149" y="435" type="line" smooth="yes"/>
      <point x="142" y="435"/>
      <point x="135" y="442"/>
      <point x="135" y="449" type="curve" smooth="yes"/>
      <point x="135" y="451" type="line" smooth="yes"/>
      <point x="135" y="458"/>
      <point x="142" y="465"/>
      <point x="149" y="465" type="curve" smooth="yes"/>
    </contour>
    <contour>
      <point x="249" y="465" type="line" smooth="yes"/>
      <point x="251" y="465" type="line" smooth="yes"/>
      <point x="258" y="465"/>
      <point x="265" y="458"/>
      <point x="265" y="451" type="curve" smooth="yes"/>
      <point x="265" y="449" type="line" smooth="yes"/>
      <point x="265" y="442"/>
      <point x="258" y="435"/>
      <point x="251" y="435" type="curve" smooth="yes"/>
      <point x="249" y="435" type="line" smooth="yes"/>
      <point x="242" y="435"/>
      <point x="235" y="442"/>
      <point x="235" y="449" type="curve" smooth="yes"/>
      <point x="235" y="451" type="line" smooth="yes"/>
      <point x="235" y="458"/>
      <point x="242" y="465"/>
      <point x="249" y="465" type="curve" smooth="yes"/>
    </contour>
    <contour>
      <point x="49" y="365" type="line" smooth="yes"/>
      <point x="51" y="365" type="line" smooth="yes"/>
      <point x="58" y="365"/>
      <point x="65" y="358"/>
      <point x="65" y="351" type="curve" smooth="yes"/>
      <point x="65" y="349" type="line" smooth="yes"/>
      <point x="65" y="342"/>
      <point x="58" y="335"/>
      <point x="51" y="335" type="curve" smooth="yes"/>
      <point x="49" y="335" type="line" smooth="yes"/>
      <point x="42" y="335"/>
      <point x="35" y="342"/>
      <point x="35" y="349" type="curve" smooth="yes"/>
      <point x="35" y="351" type="line" smooth="yes"/>
      <point x="35" y="358"/>
      <point x="42" y="365"/>
      <point x="49" y="365" type="curve" smooth="yes"/>
    </contour>
    <contour>
      <point x="149" y="365" type="line" smooth="yes"/>
      <point x="151" y="365" type="line" smooth="yes"/>
      <point x="158" y="365"/>
      <point x="165" y="358"/>
      <point x="165" y="351" type="curve" smooth="yes"/>
      <point x="165" y="349" type="line" smooth="yes"/>
      <point x="165" y="342"/>
      <point x="158" y="335"/>
      <point x="151" y="335" type="curve" smooth="yes"/>
      <point x="149" y="335" type="line" smooth="yes"/>
      <point x="142" y="335"/>
      <point x="135" y="342"/>
      <point x="135" y="349" type="curve" smooth="yes"/>
      <point x="135" y="351" type="line" smooth="yes"/>
      <point x="135" y="358"/>
      <point x="142" y="365"/>
      <point x="149" y="365" type="curve" smooth="yes"/>
    </contour>
    <contour>
      <point x="149" y="265" type="line" smooth="yes"/>
      <point x="151" y="265" type="line" smooth="yes"/>
      <point x="158" y="265"/>
      <point x="165" y="258"/>
      <point x="165" y="251" type="curve" smooth="yes"/>
      <point x="165" y="249" type="line" smooth="yes"/>
      <point x="165" y="242"/>
      <point x="158" y="235"/>
      <point x="151" y="235" type="curve" smooth="yes"/>
      <point x="149" y="235" type="line" smooth="yes"/>
      <point x="142" y="235"/>
      <point x="135" y="242"/>
      <point x="135" y="249" type="curve" smooth="yes"/>
      <point x="135" y="251" type="line" smooth="yes"/>
      <point x="135" y="258"/>
      <point x="142" y="265"/>
      <point x="149" y="265" type="curve" smooth="yes"/>
    </contour>
    <contour>
      <point x="149" y="165" type="line" smooth="yes"/>
      <point x="151" y="165" type="line" smooth="yes"/>
      <point x="158" y="165"/>
      <point x="165" y="158"/>
      <point x="165" y="151" type="curve" smooth="yes"/>
      <point x="165" y="149" type="line" smooth="yes"/>
      <point x="165" y="142"/>
      <point x="158" y="135"/>
      <point x="151" y="135" type="curve" smooth="yes"/>
      <point x="149" y="135" type="line" smooth="yes"/>
      <point x="142" y="135"/>
      <point x="135" y="142"/>
      <point x="135" y="149" type="curve" smooth="yes"/>
      <point x="135" y="151" type="line" smooth="yes"/>
      <point x="135" y="158"/>
      <point x="142" y="165"/>
      <point x="149" y="165" type="curve" smooth="yes"/>
    </contour>
    <contour>
      <point x="149" y="65" type="line" smooth="yes"/>
      <point x="151" y="65" type="line" smooth="yes"/>
      <point x="158" y="65"/>
      <point x="165" y="58"/>
      <point x="165" y="51" type="curve" smooth="yes"/>
      <point x="165" y="49" type="line" smooth="yes"/>
      <point x="165" y="42"/>
      <point x="158" y="35"/>
      <point x="151" y="35" type="curve" smooth="yes"/>
      <point x="149" y="35" type="line" smooth="yes"/>
      <point x="142" y="35"/>
      <point x="135" y="42"/>
      <point x="135" y="49" type="curve" smooth="yes"/>
      <point x="135" y="51" type="line" smooth="yes"/>
      <point x="135" y="58"/>
      <point x="142" y="65"/>
      <point x="149" y="65" type="curve" smooth="yes"/>
    </contour>
    <contour>
      <point x="249" y="65" type="line" smooth="yes"/>
      <point x="251" y="65" type="line" smooth="yes"/>
      <point x="258" y="65"/>
      <point x="265" y="58"/>
      <point x="265" y="51" type="curve" smooth="yes"/>
      <point x="265" y="49" type="line" smooth="yes"/>
      <point x="265" y="42"/>
      <point x="258" y="35"/>
      <point x="251" y="35" type="curve" smooth="yes"/>
      <point x="249" y="35" type="line" smooth="yes"/>
      <point x="242" y="35"/>
      <point x="235" y="42"/>
      <point x="235" y="49" type="curve" smooth="yes"/>
      <point x="235" y="51" type="line" smooth="yes"/>
      <point x="235" y="58"/>
      <point x="242" y="65"/>
      <point x="249" y="65" type="curve" smooth="yes"/>
    </contour>
    <contour>
      <point x="349" y="65" type="line" smooth="yes"/>
      <point x="351" y="65" type="line" smooth="yes"/>
      <point x="358" y="65"/>
      <point x="365" y="58"/>
      <point x="365" y="51" type="curve" smooth="yes"/>
      <point x="365" y="49" type="line" smooth="yes"/>
      <point x="365" y="42"/>
      <point x="358" y="35"/>
      <point x="351" y="35" type="curve" smooth="yes"/>
      <point x="349" y="35" type="line" smooth="yes"/>
      <point x="342" y="35"/>
      <point x="335" y="42"/>
      <point x="335" y="49" type="curve" smooth="yes"/>
      <point x="335" y="51" type="line" smooth="yes"/>
      <point x="335" y="58"/>
      <point x="342" y="65"/>
      <point x="349" y="65" type="curve" smooth="yes"/>
    </contour>
    <contour>
      <point x="449" y="65" type="line" smooth="yes"/>
      <point x="451" y="65" type="line" smooth="yes"/>
      <point x="458" y="65"/>
      <point x="465" y="58"/>
      <point x="465" y="51" type="curve" smooth="yes"/>
      <point x="465" y="49" type="line" smooth="yes"/>
      <point x="465" y="42"/>
      <point x="458" y="35"/>
      <point x="451" y="35" type="curve" smooth="yes"/>
      <point x="449" y="35" type="line" smooth="yes"/>
      <point x="442" y="35"/>
      <point x="435" y="42"/>
      <point x="435" y="49" type="curve" smooth="yes"/>
      <point x="435" y="51" type="line" smooth="yes"/>
      <point x="435" y="58"/>
      <point x="442" y="65"/>
      <point x="449" y="65" type="curve" smooth="yes"/>
    </contour>
  </outline>
</glyph>
<glyph name="ogonek" format="2">
  <advance width="600"/>
  <unicode hex="02DB"/>
  <outline>
    <contour>
      <point x="249" y="-35" type="line" smooth="yes"/>
      <point x="251" y="-35" type="line" smooth="yes"/>
      <point x="258" y="-35"/>
      <point x="265" y="-42"/>
      <point x="265" y="-49" type="curve" smooth="yes"/>
      <point x="265" y="-51" type="line" smooth="yes"/>
      <point x="265" y="-58"/>
      <point x="258" y="-65"/>
      <point x="251" y="-65" type="curve" smooth="yes"/>
      <point x="249" y="-65" type="line" smooth="yes"/>
      <point x="242" y="-65"/>
      <point x="235" y="-58"/>
      <point x="235" y="-51" type="curve" smooth="yes"/>
      <point x="235" y="-49" type="line" smooth="yes"/>
      <point x="235" y="-42"/>
      <point x="242" y="-35"/>
      <point x="249" y="-35" type="curve" smooth="yes"/>
    </contour>
    <contour>
      <point x="249" y="-135" type="line" smooth="yes"/>
      <point x="251" y="-135" type="line" smooth="yes"/>
      <point x="258" y="-135"/>
      <point x="265" y="-142"/>
      <point x="265" y="-149" type="curve" smooth="yes"/>
      <point x="265" y="-151" type="line" smooth="yes"/>
      <point x="265" y="-158"/>
      <point x="258" y="-165"/>
      <point x="251" y="-165" type="curve" smooth="yes"/>
      <point x="249" y="-165" type="line" smooth="yes"/>
      <point x="242" y="-165"/>
      <point x="235" y="-158"/>
      <point x="235" y="-151" type="curve" smooth="yes"/>
      <point x="235" y="-149" type="line" smooth="yes"/>
      <point x="235" y="-142"/>
      <point x="242" y="-135"/>
      <point x="249" y="-135" type="curve" smooth="yes"/>
    </contour>
    <contour>
      <point x="349" y="-135" type="line" smooth="yes"/>
      <point x="351" y="-135" type="line" smooth="yes"/>
      <point x="358" y="-135"/>
      <point x="365" y="-142"/>
      <point x="365" y="-149" type="curve" smooth="yes"/>
      <point x="365" y="-151" type="line" smooth="yes"/>
      <point x="365" y="-158"/>
      <point x="358" y="-165"/>
      <point x="351" y="-165" type="curve" smooth="yes"/>
      <point x="349" y="-165" type="line" smooth="yes"/>
      <point x="342" y="-165"/>
      <point x="335" y="-158"/>
      <point x="335" y="-151" type="curve" smooth="yes"/>
      <point x="335" y="-149" type="line" smooth="yes"/>
      <point x="335" y="-142"/>
      <point x="342" y="-135"/>
      <point x="349" y="-135" type="curve" smooth="yes"/>
    </contour>
  </outline>
</glyph>
<glyph name="uni0307" format="2">
  <advance width="600"/>
  <unicode hex="0307"/>
  <outline>
    <contour>
      <point x="249" y="765" type="line" smooth="yes"/>
      <point x="251" y="765" type="line" smooth="yes"/>
      <point x="258" y="765"/>
      <point x="265" y="758"/>
      <point x="265" y="751" type="curve" smooth="yes"/>
      <point x="265" y="749" type="line" smooth="yes"/>
      <point x="265" y="742"/>
      <point x="258" y="735"/>
      <point x="251" y="735" type="curve" smooth="yes"/>
      <point x="249" y="735" type="line" smooth="yes"/>
      <point x="242" y="735"/>
      <point x="235" y="742"/>
      <point x="235" y="749" type="curve" smooth="yes"/>
      <point x="235" y="751" type="line" smooth="yes"/>
      <point x="235" y="758"/>
      <point x="242" y="765"/>
      <point x="249" y="765" type="curve" smooth="yes"/>
    </contour>
  </outline>
</glyph>
<glyph name="uni0308" format="2">
  <advance width="600"/>
  <unicode hex="0308"/>
  <outline>
    <contour>
      <point x="149" y="765" type="line" smooth="yes"/>
      <point x="151" y="765" type="line" smooth="yes"/>
      <point x="158" y="765"/>
      <point x="165" y="758"/>
      <point x="165" y="751" type="curve" smooth="yes"/>
      <point x="165" y="749" type="line" smooth="yes"/>
      <point x="165" y="742"/>
      <point x="158" y="735"/>
      <point x="151" y="735" type="curve" smooth="yes"/>
      <point x="149" y="735" type="line" smooth="yes"/>
      <point x="142" y="735"/>
      <point x="135" y="742"/>
      <point x="135" y="749" type="curve" smooth="yes"/>
      <point x="135" y="751" type="line" smooth="yes"/>
      <point x="135" y="758"/>
      <point x="142" y="765"/>
      <point x="149" y="765" type="curve" smooth="yes"/>
    </contour>
    <contour>
      <point x="349" y="765" type="line" smooth="yes"/>
      <point x="351" y="765" type="line" smooth="yes"/>
      <point x="358" y="765"/>
      <point x="365" y="758"/>
      <point x="365" y="751" type="curve" smooth="yes"/>
      <point x="365" y="749" type="line" smooth="yes"/>
      <point x="365" y="742"/>
      <point x="358" y="735"/>
      <point x="351" y="735" type="curve" smooth="yes"/>
      <point x="349" y="735" type="line" smooth="yes"/>
      <point x="342" y="735"/>
      <point x="335" y="742"/>
      <point x="335" y="749" type="curve" smooth="yes"/>
      <point x="335" y="751" type="line" smooth="yes"/>
      <point x="335" y="758"/>
      <point x="342" y="765"/>
      <point x="349" y="765" type="curve" smooth="yes"/>
    </contour>
  </outline>
</glyph>
<glyph name="uni030A" format="2">
  <advance width="600"/>
  <unicode hex="030A"/>
  <outline>
    <contour>
      <point x="249" y="765" type="line" smooth="yes"/>
      <point x="251" y="765" type="line" smooth="yes"/>
      <point x="258" y="765"/>
      <point x="265" y="758"/>
      <point x="265" y="751" type="curve" smooth="yes"/>
      <point x="265" y="749" type="line" smooth="yes"/>
      <point x="265" y="742"/>
      <point x="258" y="735"/>
      <point x="251" y="735" type="curve" smooth="yes"/>
      <point x="249" y="735" type="line" smooth="yes"/>
      <point x="242" y="735"/>
      <point x="235" y="742"/>
      <point x="235" y="749" type="curve" smooth="yes"/>
      <point x="235" y="751" type="line" smooth="yes"/>
      <point x="235" y="758"/>
      <point x="242" y="765"/>
      <point x="249" y="765" type="curve" smooth="yes"/>
    </contour>
    <contour>
      <point x="149" y="665" type="line" smooth="yes"/>
      <point x="151" y="665" type="line" smooth="yes"/>
      <point x="158" y="665"/>
      <point x="165" y="658"/>
      <point x="165" y="651" type="curve" smooth="yes"/>
      <point x="165" y="649" type="line" smooth="yes"/>
      <point x="165" y="642"/>
      <point x="158" y="635"/>
      <point x="151" y="635" type="curve" smooth="yes"/>
      <point x="149" y="635" type="line" smooth="yes"/>
      <point x="142" y="635"/>
      <point x="135" y="642"/>
      <point x="135" y="649" type="curve" smooth="yes"/>
      <point x="135" y="651" type="line" smooth="yes"/>
      <point x="135" y="658"/>
      <point x="142" y="665"/>
      <point x="149" y="665" type="curve" smooth="yes"/>
    </contour>
    <contour>
      <point x="349" y="665" type="line" smooth="yes"/>
      <point x="351" y="665" type="line" smooth="yes"/>
      <point x="358" y="665"/>
      <point x="365" y="658"/>
      <point x="365" y="651" type="curve" smooth="yes"/>
      <point x="365" y="649" type="line" smooth="yes"/>
      <point x="365" y="642"/>
      <point x="358" y="635"/>
      <point x="351" y="635" type="curve" smooth="yes"/>
      <point x="349" y="635" type="line" smooth="yes"/>
      <point x="342" y="635"/>
      <point x="335" y="642"/>
      <point x="335" y="649" type="curve" smooth="yes"/>
      <point x="335" y="651" type="line" smooth="yes"/>
      <point x="335" y="658"/>
      <point x="342" y="665"/>
      <point x="349" y="665" type="curve" smooth="yes"/>
    </contour>
    <contour>
      <point x="249" y="565" type="line" smooth="yes"/>
      <point x="251" y="565" type="line" smooth="yes"/>
      <point x="258" y="565"/>
      <point x="265" y="558"/>
      <point x="265" y="551" type="curve" smooth="yes"/>
      <point x="265" y="549" type="line" smooth="yes"/>
      <point x="265" y="542"/>
      <point x="258" y="535"/>
      <point x="251" y="535" type="curve" smooth="yes"/>
      <point x="249" y="535" type="line" smooth="yes"/>
      <point x="242" y="535"/>
      <point x="235" y="542"/>
      <point x="235" y="549" type="curve" smooth="yes"/>
      <point x="235" y="551" type="line" smooth="yes"/>
      <point x="235" y="558"/>
      <point x="242" y="565"/>
      <point x="249" y="565" type="curve" smooth="yes"/>
    </contour>
  </outline>
</glyph>
<glyph name="uni030B" format="2">
  <advance width="600"/>
  <unicode hex="030B"/>
  <outline>
    <contour>
      <point x="149" y="765" type="line" smooth="yes"/>
      <point x="151" y="765" type="line" smooth="yes"/>
      <point x="158" y="765"/>
      <point x="165" y="758"/>
      <point x="165" y="751" type="curve" smooth="yes"/>
      <point x="165" y="749" type="line" smooth="yes"/>
      <point x="165" y="742"/>
      <point x="158" y="735"/>
      <point x="151" y="735" type="curve" smooth="yes"/>
      <point x="149" y="735" type="line" smooth="yes"/>
      <point x="142" y="735"/>
      <point x="135" y="742"/>
      <point x="135" y="749" type="curve" smooth="yes"/>
      <point x="135" y="751" type="line" smooth="yes"/>
      <point x="135" y="758"/>
      <point x="142" y="765"/>
      <point x="149" y="765" type="curve" smooth="yes"/>
    </contour>
    <contour>
      <point x="449" y="765" type="line" smooth="yes"/>
      <point x="451" y="765" type="line" smooth="yes"/>
      <point x="458" y="765"/>
      <point x="465" y="758"/>
      <point x="465" y="751" type="curve" smooth="yes"/>
      <point x="465" y="749" type="line" smooth="yes"/>
      <point x="465" y="742"/>
      <point x="458" y="735"/>
      <point x="451" y="735" type="curve" smooth="yes"/>
      <point x="449" y="735" type="line" smooth="yes"/>
      <point x="442" y="735"/>
      <point x="435" y="742"/>
      <point x="435" y="749" type="curve" smooth="yes"/>
      <point x="435" y="751" type="line" smooth="yes"/>
      <point x="435" y="758"/>
      <point x="442" y="765"/>
      <point x="449" y="765" type="curve" smooth="yes"/>
    </contour>
    <contour>
      <point x="49" y="665" type="line" smooth="yes"/>
      <point x="51" y="665" type="line" smooth="yes"/>
      <point x="58" y="665"/>
      <point x="65" y="658"/>
      <point x="65" y="651" type="curve" smooth="yes"/>
      <point x="65" y="649" type="line" smooth="yes"/>
      <point x="65" y="642"/>
      <point x="58" y="635"/>
      <point x="51" y="635" type="curve" smooth="yes"/>
      <point x="49" y="635" type="line" smooth="yes"/>
      <point x="42" y="635"/>
      <point x="35" y="642"/>
      <point x="35" y="649" type="curve" smooth="yes"/>
      <point x="35" y="651" type="line" smooth="yes"/>
      <point x="35" y="658"/>
      <point x="42" y="665"/>
      <point x="49" y="665" type="curve" smooth="yes"/>
    </contour>
    <contour>
      <point x="349" y="665" type="line" smooth="yes"/>
      <point x="351" y="665" type="line" smooth="yes"/>
      <point x="358" y="665"/>
      <point x="365" y="658"/>
      <point x="365" y="651" type="curve" smooth="yes"/>
      <point x="365" y="649" type="line" smooth="yes"/>
      <point x="365" y="642"/>
      <point x="358" y="635"/>
      <point x="351" y="635" type="curve" smooth="yes"/>
      <point x="349" y="635" type="line" smooth="yes"/>
      <point x="342" y="635"/>
      <point x="335" y="642"/>
      <point x="335" y="649" type="curve" smooth="yes"/>
      <point x="335" y="651" type="line" smooth="yes"/>
      <point x="335" y="658"/>
      <point x="342" y="665"/>
      <point x="349" y="665" type="curve" smooth="yes"/>
    </contour>
  </outline>
</glyph>
<glyph name="quoteleft" format="2">
  <advance width="600"/>
  <unicode hex="2018"/>
  <outline>
    <contour>
      <point x="349" y="665" type="line" smooth="yes"/>
      <point x="351" y="665" type="line" smooth="yes"/>
      <point x="358" y="665"/>
      <point x="365" y="658"/>
      <point x="365" y="651" type="curve" smooth="yes"/>
      <point x="365" y="649" type="line" smooth="yes"/>
      <point x="365" y="642"/>
      <point x="358" y="635"/>
      <point x="351" y="635" type="curve" smooth="yes"/>
      <point x="349" y="635" type="line" smooth="yes"/>
      <point x="342" y="635"/>
      <point x="335" y="642"/>
      <point x="335" y="649" type="curve" smooth="yes"/>
      <point x="335" y="651" type="line" smooth="yes"/>
      <point x="335" y="658"/>
      <point x="342" y="665"/>
      <point x="349" y="665" type="curve" smooth="yes"/>
    </contour>
    <contour>
      <point x="249" y="565" type="line" smooth="yes"/>
      <point x="251" y="565" type="line" smooth="yes"/>
      <point x="258" y="565"/>
      <point x="265" y="558"/>
      <point x="265" y="551" type="curve" smooth="yes"/>
      <point x="265" y="549" type="line" smooth="yes"/>
      <point x="265" y="542"/>
      <point x="258" y="535"/>
      <point x="251" y="535" type="curve" smooth="yes"/>
      <point x="249" y="535" type="line" smooth="yes"/>
      <point x="242" y="535"/>
      <point x="235" y="542"/>
      <point x="235" y="549" type="curve" smooth="yes"/>
      <point x="235" y="551" type="line" smooth="yes"/>
      <point x="235" y="558"/>
      <point x="242" y="565"/>
      <point x="249" y="565" type="curve" smooth="yes"/>
    </contour>
    <contour>
      <point x="249" y="465" type="line" smooth="yes"/>
      <point x="251" y="465" type="line" smooth="yes"/>
      <point x="258" y="465"/>
      <point x="265" y="458"/>
      <point x="265" y="451" type="curve" smooth="yes"/>
      <point x="265" y="449" type="line" smooth="yes"/>
      <point x="265" y="442"/>
      <point x="258" y="435"/>
      <point x="251" y="435" type="curve" smooth="yes"/>
      <point x="249" y="435" type="line" smooth="yes"/>
      <point x="242" y="435"/>
      <point x="235" y="442"/>
      <point x="235" y="449" type="curve" smooth="yes"/>
      <point x="235" y="451" type="line" smooth="yes"/>
      <point x="235" y="458"/>
      <point x="242" y="465"/>
      <point x="249" y="465" type="curve" smooth="yes"/>
    </contour>
    <contour>
      <point x="349" y="465" type="line" smooth="yes"/>
      <point x="351" y="465" type="line" smooth="yes"/>
      <point x="358" y="465"/>
      <point x="365" y="458"/>
      <point x="365" y="451" type="curve" smooth="yes"/>
      <point x="365" y="449" type="line" smooth="yes"/>
      <point x="365" y="442"/>
      <point x="358" y="435"/>
      <point x="351" y="435" type="curve" smooth="yes"/>
      <point x="349" y="435" type="line" smooth="yes"/>
      <point x="342" y="435"/>
      <point x="335" y="442"/>
      <point x="335" y="449" type="curve" smooth="yes"/>
      <point x="335" y="451" type="line" smooth="yes"/>
      <point x="335" y="458"/>
      <point x="342" y="465"/>
      <point x="349" y="465" type="curve" smooth="yes"/>
    </contour>
  </outline>
</glyph>
<glyph name="quotedblbase" format="2">
  <advance width="600"/>
  <unicode hex="201E"/>
  <outline>
    <contour>
      <point x="49" y="165" type="line" smooth="yes"/>
      <point x="51" y="165" type="line" smooth="yes"/>
      <point x="58" y="165"/>
      <point x="65" y="158"/>
      <point x="65" y="151" type="curve" smooth="yes"/>
      <point x="65" y="149" type="line" smooth="yes"/>
      <point x="65" y="142"/>
      <point x="58" y="135"/>
      <point x="51" y="135" type="curve" smooth="yes"/>
      <point x="49" y="135" type="line" smooth="yes"/>
      <point x="42" y="135"/>
      <point x="35" y="142"/>
      <point x="35" y="149" type="curve" smooth="yes"/>
      <point x="35" y="151" type="line" smooth="yes"/>
      <point x="35" y="158"/>
      <point x="42" y="165"/>
      <point x="49" y="165" type="curve" smooth="yes"/>
    </contour>
    <contour>
      <point x="149" y="165" type="line" smooth="yes"/>
      <point x="151" y="165" type="line" smooth="yes"/>
      <point x="158" y="165"/>
      <point x="165" y="158"/>
      <point x="165" y="151" type="curve" smooth="yes"/>
      <point x="165" y="149" type="line" smooth="yes"/>
      <point x="165" y="142"/>
      <point x="158" y="135"/>
      <point x="151" y="135" type="curve" smooth="yes"/>
      <point x="149" y="135" type="line" smooth="yes"/>
      <point x="142" y="135"/>
      <point x="135" y="142"/>
      <point x="135" y="149" type="curve" smooth="yes"/>
      <point x="135" y="151" type="line" smooth="yes"/>
      <point x="135" y="158"/>
      <point x="142" y="165"/>
      <point x="149" y="165" type="curve" smooth="yes"/>
    </contour>
    <contour>
      <point x="349" y="165" type="line" smooth="yes"/>
      <point x="351" y="165" type="line" smooth="yes"/>
      <point x="358" y="165"/>
      <point x="365" y="158"/>
      <point x="365" y="151" type="curve" smooth="yes"/>
      <point x="365" y="149" type="line" smooth="yes"/>
      <point x="365" y="142"/>
      <point x="358" y="135"/>
      <point x="351" y="135" type="curve" smooth="yes"/>
      <point x="349" y="135" type="line" smooth="yes"/>
      <point x="342" y="135"/>
      <point x="335" y="142"/>
      <point x="335" y="149" type="curve" smooth="yes"/>
      <point x="335" y="151" type="line" smooth="yes"/>
      <point x="335" y="158"/>
      <point x="342" y="165"/>
      <point x="349" y="165" type="curve" smooth="yes"/>
    </contour>
    <contour>
      <point x="449" y="165" type="line" smooth="yes"/>
      <point x="451" y="165" type="line" smooth="yes"/>
      <point x="458" y="165"/>
      <point x="465" y="158"/>
      <point x="465" y="151" type="curve" smooth="yes"/>
      <point x="465" y="149" type="line" smooth="yes"/>
      <point x="465" y="142"/>
      <point x="458" y="135"/>
      <point x="451" y="135" type="curve" smooth="yes"/>
      <point x="449" y="135" type="line" smooth="yes"/>
      <point x="442" y="135"/>
      <point x="435" y="142"/>
      <point x="435" y="149" type="curve" smooth="yes"/>
      <point x="435" y="151" type="line" smooth="yes"/>
      <point x="435" y="158"/>
      <point x="442" y="165"/>
      <point x="449" y="165" type="curve" smooth="yes"/>
    </contour>
    <contour>
      <point x="149" y="65" type="line" smooth="yes"/>
      <point x="151" y="65" type="line" smooth="yes"/>
      <point x="158" y="65"/>
      <point x="165" y="58"/>
      <point x="165" y="51" type="curve" smooth="yes"/>
      <point x="165" y="49" type="line" smooth="yes"/>
      <point x="165" y="42"/>
      <point x="158" y="35"/>
      <point x="151" y="35" type="curve" smooth="yes"/>
      <point x="149" y="35" type="line" smooth="yes"/>
      <point x="142" y="35"/>
      <point x="135" y="42"/>
      <point x="135" y="49" type="curve" smooth="yes"/>
      <point x="135" y="51" type="line" smooth="yes"/>
      <point x="135" y="58"/>
      <point x="142" y="65"/>
      <point x="149" y="65" type="curve" smooth="yes"/>
    </contour>
    <contour>
      <point x="449" y="65" type="line" smooth="yes"/>
      <point x="451" y="65" type="line" smooth="yes"/>
      <point x="458" y="65"/>
      <point x="465" y="58"/>
      <point x="465" y="51" type="curve" smooth="yes"/>
      <point x="465" y="49" type="line" smooth="yes"/>
      <point x="465" y="42"/>
      <point x="458" y="35"/>
      <point x="451" y="35" type="curve" smooth="yes"/>
      <point x="449" y="35" type="line" smooth="yes"/>
      <point x="442" y="35"/>
      <point x="435" y="42"/>
      <point x="435" y="49" type="curve" smooth="yes"/>
      <point x="435" y="51" type="line" smooth="yes"/>
      <point x="435" y="58"/>
      <point x="442" y="65"/>
      <point x="449" y="65" type="curve" smooth="yes"/>
    </contour>
    <contour>
      <point x="49" y="-35" type="line" smooth="yes"/>
      <point x="51" y="-35" type="line" smooth="yes"/>
      <point x="58" y="-35"/>
      <point x="65" y="-42"/>
      <point x="65" y="-49" type="curve" smooth="yes"/>
      <point x="65" y="-51" type="line" smooth="yes"/>
      <point x="65" y="-58"/>
      <point x="58" y="-65"/>
      <point x="51" y="-65" type="curve" smooth="yes"/>
      <point x="49" y="-65" type="line" smooth="yes"/>
      <point x="42" y="-65"/>
      <point x="35" y="-58"/>
      <point x="35" y="-51" type="curve" smooth="yes"/>
      <point x="35" y="-49" type="line" smooth="yes"/>
      <point x="35" y="-42"/>
      <point x="42" y="-35"/>
      <point x="49" y="-35" type="curve" smooth="yes"/>
    </contour>
    <contour>
      <point x="349" y="-35" type="line" smooth="yes"/>
      <point x="351" y="-35" type="line" smooth="yes"/>
      <point x="358" y="-35"/>
      <point x="365" y="-42"/>
      <point x="365" y="-49" type="curve" smooth="yes"/>
      <point x="365" y="-51" type="line" smooth="yes"/>
      <point x="365" y="-58"/>
      <point x="358" y="-65"/>
      <point x="351" y="-65" type="curve" smooth="yes"/>
      <point x="349" y="-65" type="line" smooth="yes"/>
      <point x="342" y="-65"/>
      <point x="335" y="-58"/>
      <point x="335" y="-51" type="curve" smooth="yes"/>
      <point x="335" y="-49" type="line" smooth="yes"/>
      <point x="335" y="-42"/>
      <point x="342" y="-35"/>
      <point x="349" y="-35" type="curve" smooth="yes"/>
    </contour>
  </outline>
</glyph>
<glyph name="ellipsis" format="2">
  <advance width="600"/>
  <unicode hex="2026"/>
  <outline>
    <contour>
      <point x="49" y="65" type="line" smooth="yes"/>
      <point x="51" y="65" type="line" smooth="yes"/>
      <point x="58" y="65"/>
      <point x="65" y="58"/>
      <point x="65" y="51" type="curve" smooth="yes"/>
      <point x="65" y="49" type="line" smooth="yes"/>
      <point x="65" y="42"/>
      <point x="58" y="35"/>
      <point x="51" y="35" type="curve" smooth="yes"/>
      <point x="49" y="35" type="line" smooth="yes"/>
      <point x="42" y="35"/>
      <point x="35" y="42"/>
      <point x="35" y="49" type="curve" smooth="yes"/>
      <point x="35" y="51" type="line" smooth="yes"/>
      <point x="35" y="58"/>
      <point x="42" y="65"/>
      <point x="49" y="65" type="curve" smooth="yes"/>
    </contour>
    <contour>
      <point x="249" y="65" type="line" smooth="yes"/>
      <point x="251" y="65" type="line" smooth="yes"/>
      <point x="258" y="65"/>
      <point x="265" y="58"/>
      <point x="265" y="51" type="curve" smooth="yes"/>
      <point x="265" y="49" type="line" smooth="yes"/>
      <point x="265" y="42"/>
      <point x="258" y="35"/>
      <point x="251" y="35" type="curve" smooth="yes"/>
      <point x="249" y="35" type="line" smooth="yes"/>
      <point x="242" y="35"/>
      <point x="235" y="42"/>
      <point x="235" y="49" type="curve" smooth="yes"/>
      <point x="235" y="51" type="line" smooth="yes"/>
      <point x="235" y="58"/>
      <point x="242" y="65"/>
      <point x="249" y="65" type="curve" smooth="yes"/>
    </contour>
    <contour>
      <point x="449" y="65" type="line" smooth="yes"/>
      <point x="451" y="65" type="line" smooth="yes"/>
      <point x="458" y="65"/>
      <point x="465" y="58"/>
      <point x="465" y="51" type="curve" smooth="yes"/>
      <point x="465" y="49" type="line" smooth="yes"/>
      <point x="465" y="42"/>
      <point x="458" y="35"/>
      <point x="451" y="35" type="curve" smooth="yes"/>
      <point x="449" y="35" type="line" smooth="yes"/>
      <point x="442" y="35"/>
      <point x="435" y="42"/>
      <point x="435" y="49" type="curve" smooth="yes"/>
      <point x="435" y="51" type="line" smooth="yes"/>
      <point x="435" y="58"/>
      <point x="442" y="65"/>
      <point x="449" y="65" type="curve" smooth="yes"/>
    </contour>
  </outline>
</glyph>
<glyph name="trademark" format="2">
  <advance width="600"/>
  <unicode hex="2122"/>
  <outline>
    <contour>
      <point x="49" y="765" type="line" smooth="yes"/>
      <point x="51" y="765" type="line" smooth="yes"/>
      <point x="58" y="765"/>
      <point x="65" y="758"/>
      <point x="65" y="751" type="curve" smooth="yes"/>
      <point x="65" y="749" type="line" smooth="yes"/>
      <point x="65" y="742"/>
      <point x="58" y="735"/>
      <point x="51" y="735" type="curve" smooth="yes"/>
      <point x="49" y="735" type="line" smooth="yes"/>
      <point x="42" y="735"/>
      <point x="35" y="742"/>
      <point x="35" y="749" type="curve" smooth="yes"/>
      <point x="35" y="751" type="line" smooth="yes"/>
      <point x="35" y="758"/>
      <point x="42" y="765"/>
      <point x="49" y="765" type="curve" smooth="yes"/>
    </contour>
    <contour>
      <point x="149" y="765" type="line" smooth="yes"/>
      <point x="151" y="765" type="line" smooth="yes"/>
      <point x="158" y="765"/>
      <point x="165" y="758"/>
      <point x="165" y="751" type="curve" smooth="yes"/>
      <point x="165" y="749" type="line" smooth="yes"/>
      <point x="165" y="742"/>
      <point x="158" y="735"/>
      <point x="151" y="735" type="curve" smooth="yes"/>
      <point x="149" y="735" type="line" smooth="yes"/>
      <point x="142" y="735"/>
      <point x="135" y="742"/>
      <point x="135" y="749" type="curve" smooth="yes"/>
      <point x="135" y="751" type="line" smooth="yes"/>
      <point x="135" y="758"/>
      <point x="142" y="765"/>
      <point x="149" y="765" type="curve" smooth="yes"/>
    </contour>
    <contour>
      <point x="249" y="765" type="line" smooth="yes"/>
      <point x="251" y="765" type="line" smooth="yes"/>
      <point x="258" y="765"/>
      <point x="265" y="758"/>
      <point x="265" y="751" type="curve" smooth="yes"/>
      <point x="265" y="749" type="line" smooth="yes"/>
      <point x="265" y="742"/>
      <point x="258" y="735"/>
      <point x="251" y="735" type="curve" smooth="yes"/>
      <point x="249" y="735" type="line" smooth="yes"/>
      <point x="242" y="735"/>
      <point x="235" y="742"/>
      <point x="235" y="749" type="curve" smooth="yes"/>
      <point x="235" y="751" type="line" smooth="yes"/>
      <point x="235" y="758"/>
      <point x="242" y="765"/>
      <point x="249" y="765" type="curve" smooth="yes"/>
    </contour>
    <contour>
      <point x="349" y="765" type="line" smooth="yes"/>
      <point x="351" y="765" type="line" smooth="yes"/>
      <point x="358" y="765"/>
      <point x="365" y="758"/>
      <point x="365" y="751" type="curve" smooth="yes"/>
      <point x="365" y="749" type="line" smooth="yes"/>
      <point x="365" y="742"/>
      <point x="358" y="735"/>
      <point x="351" y="735" type="curve" smooth="yes"/>
      <point x="349" y="735" type="line" smooth="yes"/>
      <point x="342" y="735"/>
      <point x="335" y="742"/>
      <point x="335" y="749" type="curve" smooth="yes"/>
      <point x="335" y="751" type="line" smooth="yes"/>
      <point x="335" y="758"/>
      <point x="342" y="765"/>
      <point x="349" y="765" type="curve" smooth="yes"/>
    </contour>
    <contour>
      <point x="449" y="765" type="line" smooth="yes"/>
      <point x="451" y="765" type="line" smooth="yes"/>
      <point x="458" y="765"/>
      <point x="465" y="758"/>
      <point x="465" y="751" type="curve" smooth="yes"/>
      <point x="465" y="749" type="line" smooth="yes"/>
      <point x="465" y="742"/>
      <point x="458" y="735"/>
      <point x="451" y="735" type="curve" smooth="yes"/>
      <point x="449" y="735" type="line" smooth="yes"/>
      <point x="442" y="735"/>
      <point x="435" y="742"/>
      <point x="435" y="749" type="curve" smooth="yes"/>
      <point x="435" y="751" type="line" smooth="yes"/>
      <point x="435" y="758"/>
      <point x="442" y="765"/>
      <point x="449" y="765" type="curve" smooth="yes"/>
    </contour>
    <contour>
      <point x="549" y="765" type="line" smooth="yes"/>
      <point x="551" y="765" type="line" smooth="yes"/>
      <point x="558" y="765"/>
      <point x="565" y="758"/>
      <point x="565" y="751" type="curve" smooth="yes"/>
      <point x="565" y="749" type="line" smooth="yes"/>
      <point x="565" y="742"/>
      <point x="558" y="735"/>
      <point x="551" y="735" type="curve" smooth="yes"/>
      <point x="549" y="735" type="line" smooth="yes"/>
      <point x="542" y="735"/>
      <point x="535" y="742"/>
      <point x="535" y="749" type="curve" smooth="yes"/>
      <point x="535" y="751" type="line" smooth="yes"/>
      <point x="535" y="758"/>
      <point x="542" y="765"/>
      <point x="549" y="765" type="curve" smooth="yes"/>
    </contour>
    <contour>
      <point x="149" y="665" type="line" smooth="yes"/>
      <point x="151" y="665" type="line" smooth="yes"/>
      <point x="158" y="665"/>
      <point x="165" y="658"/>
      <point x="165" y="651" type="curve" smooth="yes"/>
      <point x="165" y="649" type="line" smooth="yes"/>
      <point x="165" y="642"/>
      <point x="158" y="635"/>
      <point x="151" y="635" type="curve" smooth="yes"/>
      <point x="149" y="635" type="line" smooth="yes"/>
      <point x="142" y="635"/>
      <point x="135" y="642"/>
      <point x="135" y="649" type="curve" smooth="yes"/>
      <point x="135" y="651" type="line" smooth="yes"/>
      <point x="135" y="658"/>
      <point x="142" y="665"/>
      <point x="149" y="665" type="curve" smooth="yes"/>
    </contour>
    <contour>
      <point x="349" y="665" type="line" smooth="yes"/>
      <point x="351" y="665" type="line" smooth="yes"/>
      <point x="358" y="665"/>
      <point x="365" y="658"/>
      <point x="365" y="651" type="curve" smooth="yes"/>
      <point x="365" y="649" type="line" smooth="yes"/>
      <point x="365" y="642"/>
      <point x="358" y="635"/>
      <point x="351" y="635" type="curve" smooth="yes"/>
      <point x="349" y="635" type="line" smooth="yes"/>
      <point x="342" y="635"/>
      <point x="335" y="642"/>
      <point x="335" y="649" type="curve" smooth="yes"/>
      <point x="335" y="651" type="line" smooth="yes"/>
      <point x="335" y="658"/>
      <point x="342" y="665"/>
      <point x="349" y="665" type="curve" smooth="yes"/>
    </contour>
    <contour>
      <point x="449" y="665" type="line" smooth="yes"/>
      <point x="451" y="665" type="line" smooth="yes"/>
      <point x="458" y="665"/>
      <point x="465" y="658"/>
      <point x="465" y="651" type="curve" smooth="yes"/>
      <point x="465" y="649" type="line" smooth="yes"/>
      <point x="465" y="642"/>
      <point x="458" y="635"/>
      <point x="451" y="635" type="curve" smooth="yes"/>
      <point x="449" y="635" type="line" smooth="yes"/>
      <point x="442" y="635"/>
      <point x="435" y="642"/>
      <point x="435" y="649" type="curve" smooth="yes"/>
      <point x="435" y="651" type="line" smooth="yes"/>
      <point x="435" y="658"/>
      <point x="442" y="665"/>
      <point x="449" y="665" type="curve" smooth="yes"/>
    </contour>
    <contour>
      <point x="549" y="665" type="line" smooth="yes"/>
      <point x="551" y="665" type="line" smooth="yes"/>
      <point x="558" y="665"/>
      <point x="565" y="658"/>
      <point x="565" y="651" type="curve" smooth="yes"/>
      <point x="565" y="649" type="line" smooth="yes"/>
      <point x="565" y="642"/>
      <point x="558" y="635"/>
      <point x="551" y="635" type="curve" smooth="yes"/>
      <point x="549" y="635" type="line" smooth="yes"/>
      <point x="542" y="635"/>
      <point x="535" y="642"/>
      <point x="535" y="649" type="curve" smooth="yes"/>
      <point x="535" y="651" type="line" smooth="yes"/>
      <point x="535" y="658"/>
      <point x="542" y="665"/>
      <point x="549" y="665" type="curve" smooth="yes"/>
    </contour>
    <contour>
      <point x="149" y="565" type="line" smooth="yes"/>
      <point x="151" y="565" type="line" smooth="yes"/>
      <point x="158" y="565"/>
      <point x="165" y="558"/>
      <point x="165" y="551" type="curve" smooth="yes"/>
      <point x="165" y="549" type="line" smooth="yes"/>
      <point x="165" y="542"/>
      <point x="158" y="535"/>
      <point x="151" y="535" type="curve" smooth="yes"/>
      <point x="149" y="535" type="line" smooth="yes"/>
      <point x="142" y="535"/>
      <point x="135" y="542"/>
      <point x="135" y="549" type="curve" smooth="yes"/>
      <point x="135" y="551" type="line" smooth="yes"/>
      <point x="135" y="558"/>
      <point x="142" y="565"/>
      <point x="149" y="565" type="curve" smooth="yes"/>
    </contour>
    <contour>
      <point x="349" y="565" type="line" smooth="yes"/>
      <point x="351" y="565" type="line" smooth="yes"/>
      <point x="358" y="565"/>
      <point x="365" y="558"/>
      <point x="365" y="551" type="curve" smooth="yes"/>
      <point x="365" y="549" type="line" smooth="yes"/>
      <point x="365" y="542"/>
      <point x="358" y="535"/>
      <point x="351" y="535" type="curve" smooth="yes"/>
      <point x="349" y="535" type="line" smooth="yes"/>
      <point x="342" y="535"/>
      <point x="335" y="542"/>
      <point x="335" y="549" type="curve" smooth="yes"/>
      <point x="335" y="551" type="line" smooth="yes"/>
      <point x="335" y="558"/>
      <point x="342" y="565"/>
      <point x="349" y="565" type="curve" smooth="yes"/>
    </contour>
    <contour>
      <point x="549" y="565" type="line" smooth="yes"/>
      <point x="551" y="565" type="line" smooth="yes"/>
      <point x="558" y="565"/>
      <point x="565" y="558"/>
      <point x="565" y="551" type="curve" smooth="yes"/>
      <point x="565" y="549" type="line" smooth="yes"/>
      <point x="565" y="542"/>
      <point x="558" y="535"/>
      <point x="551" y="535" type="curve" smooth="yes"/>
      <point x="549" y="535" type="line" smooth="yes"/>
      <point x="542" y="535"/>
      <point x="535" y="542"/>
      <point x="535" y="549" type="curve" smooth="yes"/>
      <point x="535" y="551" type="line" smooth="yes"/>
      <point x="535" y="558"/>
      <point x="542" y="565"/>
      <point x="549" y="565" type="curve" smooth="yes"/>
    </contour>
    <contour>
      <point x="149" y="465" type="line" smooth="yes"/>
      <point x="151" y="465" type="line" smooth="yes"/>
      <point x="158" y="465"/>
      <point x="165" y="458"/>
      <point x="165" y="451" type="curve" smooth="yes"/>
      <point x="165" y="449" type="line" smooth="yes"/>
      <point x="165" y="442"/>
      <point x="158" y="435"/>
      <point x="151" y="435" type="curve" smooth="yes"/>
      <point x="149" y="435" type="line" smooth="yes"/>
      <point x="142" y="435"/>
      <point x="135" y="442"/>
      <point x="135" y="449" type="curve" smooth="yes"/>
      <point x="135" y="451" type="line" smooth="yes"/>
      <point x="135" y="458"/>
      <point x="142" y="465"/>
      <point x="149" y="465" type="curve" smooth="yes"/>
    </contour>
    <contour>
      <point x="349" y="465" type="line" smooth="yes"/>
      <point x="351" y="465" type="line" smooth="yes"/>
      <point x="358" y="465"/>
      <point x="365" y="458"/>
      <point x="365" y="451" type="curve" smooth="yes"/>
      <point x="365" y="449" type="line" smooth="yes"/>
      <point x="365" y="442"/>
      <point x="358" y="435"/>
      <point x="351" y="435" type="curve" smooth="yes"/>
      <point x="349" y="435" type="line" smooth="yes"/>
      <point x="342" y="435"/>
      <point x="335" y="442"/>
      <point x="335" y="449" type="curve" smooth="yes"/>
      <point x="335" y="451" type="line" smooth="yes"/>
      <point x="335" y="458"/>
      <point x="342" y="465"/>
      <point x="349" y="465" type="curve" smooth="yes"/>
    </contour>
    <contour>
      <point x="549" y="465" type="line" smooth="yes"/>
      <point x="551" y="465" type="line" smooth="yes"/>
      <point x="558" y="465"/>
      <point x="565" y="458"/>
      <point x="565" y="451" type="curve" smooth="yes"/>
      <point x="565" y="449" type="line" smooth="yes"/>
      <point x="565" y="442"/>
      <point x="558" y="435"/>
      <point x="551" y="435" type="curve" smooth="yes"/>
      <point x="549" y="435" type="line" smooth="yes"/>
      <point x="542" y="435"/>
      <point x="535" y="442"/>
      <point x="535" y="449" type="curve" smooth="yes"/>
      <point x="535" y="451" type="line" smooth="yes"/>
      <point x="535" y="458"/>
      <point x="542" y="465"/>
      <point x="549" y="465" type="curve" smooth="yes"/>
    </contour>
  </outline>
</glyph>
<glyph name="minus" format="2">
  <advance width="600"/>
  <unicode hex="2212"/>
  <outline>
    <contour>
      <point x="49" y="365" type="line" smooth="yes"/>
      <point x="51" y="365" type="line" smooth="yes"/>
      <point x="58" y="365"/>
      <point x="65" y="358"/>
      <point x="65" y="351" type="curve" smooth="yes"/>
      <point x="65" y="349" type="line" smooth="yes"/>
      <point x="65" y="342"/>
      <point x="58" y="335"/>
      <point x="51" y="335" type="curve" smooth="yes"/>
      <point x="49" y="335" type="line" smooth="yes"/>
      <point x="42" y="335"/>
      <point x="35" y="342"/>
      <point x="35" y="349" type="curve" smooth="yes"/>
      <point x="35" y="351" type="line" smooth="yes"/>
      <point x="35" y="358"/>
      <point x="42" y="365"/>
      <point x="49" y="365" type="curve" smooth="yes"/>
    </contour>
    <contour>
      <point x="149" y="365" type="line" smooth="yes"/>
      <point x="151" y="365" type="line" smooth="yes"/>
      <point x="158" y="365"/>
      <point x="165" y="358"/>
      <point x="165" y="351" type="curve" smooth="yes"/>
      <point x="165" y="349" type="line" smooth="yes"/>
      <point x="165" y="342"/>
      <point x="158" y="335"/>
      <point x="151" y="335" type="curve" smooth="yes"/>
      <point x="149" y="335" type="line" smooth="yes"/>
      <point x="142" y="335"/>
      <point x="135" y="342"/>
      <point x="135" y="349" type="curve" smooth="yes"/>
      <point x="135" y="351" type="line" smooth="yes"/>
      <point x="135" y="358"/>
      <point x="142" y="365"/>
      <point x="149" y="365" type="curve" smooth="yes"/>
    </contour>
    <contour>
      <point x="249" y="365" type="line" smooth="yes"/>
      <point x="251" y="365" type="line" smooth="yes"/>
      <point x="258" y="365"/>
      <point x="265" y="358"/>
      <point x="265" y="351" type="curve" smooth="yes"/>
      <point x="265" y="349" type="line" smooth="yes"/>
      <point x="265" y="342"/>
      <point x="258" y="335"/>
      <point x="251" y="335" type="curve" smooth="yes"/>
      <point x="249" y="335" type="line" smooth="yes"/>
      <point x="242" y="335"/>
      <point x="235" y="342"/>
      <point x="235" y="349" type="curve" smooth="yes"/>
      <point x="235" y="351" type="line" smooth="yes"/>
      <point x="235" y="358"/>
      <point x="242" y="365"/>
      <point x="249" y="365" type="curve" smooth="yes"/>
    </contour>
    <contour>
      <point x="349" y="365" type="line" smooth="yes"/>
      <point x="351" y="365" type="line" smooth="yes"/>
      <point x="358" y="365"/>
      <point x="365" y="358"/>
      <point x="365" y="351" type="curve" smooth="yes"/>
      <point x="365" y="349" type="line" smooth="yes"/>
      <point x="365" y="342"/>
      <point x="358" y="335"/>
      <point x="351" y="335" type="curve" smooth="yes"/>
      <point x="349" y="335" type="line" smooth="yes"/>
      <point x="342" y="335"/>
      <point x="335" y="342"/>
      <point x="335" y="349" type="curve" smooth="yes"/>
      <point x="335" y="351" type="line" smooth="yes"/>
      <point x="335" y="358"/>
      <point x="342" y="365"/>
      <point x="349" y="365" type="curve" smooth="yes"/>
    </contour>
    <contour>
      <point x="449" y="365" type="line" smooth="yes"/>
      <point x="451" y="365" type="line" smooth="yes"/>
      <point x="458" y="365"/>
      <point x="465" y="358"/>
      <point x="465" y="351" type="curve" smooth="yes"/>
      <point x="465" y="349" type="line" smooth="yes"/>
      <point x="465" y="342"/>
      <point x="458" y="335"/>
      <point x="451" y="335" type="curve" smooth="yes"/>
      <point x="449" y="335" type="line" smooth="yes"/>
      <point x="442" y="335"/>
      <point x="435" y="342"/>
      <point x="435" y="349" type="curve" smooth="yes"/>
      <point x="435" y="351" type="line" smooth="yes"/>
      <point x="435" y="358"/>
      <point x="442" y="365"/>
      <point x="449" y="365" type="curve" smooth="yes"/>
    </contour>
  </outline>
</glyph>
